<?xml version="1.0" encoding="UTF-8" standalone="no"?>
<!DOCTYPE svg PUBLIC "-//W3C//DTD SVG 20010904//EN"
 "http://www.w3.org/TR/2001/REC-SVG-20010904/DTD/svg10.dtd">
<svg version="1.0" xmlns="http://www.w3.org/2000/svg"
 width="41.000000pt" height="49.000000pt" viewBox="0 0 41.000000 49.000000"
 preserveAspectRatio="xMidYMid meet">
<metadata>
Created by POTRACE 1.0.0, written by Peter Selinger 2001-2017
</metadata>
<g transform="translate(0.000000,49.000000) scale(0.100000,-0.100000)"
>
<path d="M96 404 c13 -18 20 -22 28 -14 8 8 6 15 -8 26 -30 22 -38 17 -20 -12z"/>
<path d="M343 409 c-6 -6 -40 -9 -87 -7 -42 2 -76 0 -76 -4 0 -5 20 -8 45 -8
44 0 45 -1 45 -31 0 -29 -2 -31 -30 -27 l-30 5 0 -100 c0 -55 3 -97 8 -93 4 4
7 42 7 84 l0 77 58 3 57 3 0 -81 c0 -106 20 -106 22 0 0 44 1 86 2 93 1 8 -12
11 -41 9 -45 -4 -47 -2 -37 36 6 19 13 22 56 22 35 0 48 4 46 13 -6 16 -31 20
-45 6z"/>
<path d="M38 373 c-3 -10 -9 -26 -13 -35 -4 -11 -3 -18 3 -18 6 0 14 9 17 20
5 17 15 20 61 20 55 0 64 -6 42 -28 -8 -8 -8 -12 -1 -12 6 0 16 7 23 15 7 8
19 15 27 15 12 0 13 3 4 14 -9 10 -28 12 -77 8 -46 -3 -68 -1 -74 7 -5 9 -9 7
-12 -6z"/>
<path d="M87 323 c-2 -5 -7 -20 -11 -35 -5 -23 -12 -28 -39 -29 -30 -2 -30 -2
-4 -6 29 -5 34 -21 17 -54 -9 -16 -6 -22 20 -38 l31 -18 -48 -43 c-37 -33 -41
-39 -18 -27 17 8 39 24 49 36 25 27 34 27 68 -6 21 -20 28 -23 28 -11 0 9 -12
25 -26 36 -25 18 -26 20 -14 58 7 21 19 46 26 55 20 22 7 30 -38 23 -43 -7
-49 5 -22 44 13 19 13 22 0 22 -8 0 -17 -3 -19 -7z m47 -95 c-22 -73 -27 -78
-57 -55 -15 10 -16 17 -6 45 9 26 16 32 41 32 26 0 29 -3 22 -22z"/>
<path d="M270 218 c0 -74 -20 -114 -74 -147 -48 -30 -46 -36 4 -11 22 11 50
34 62 50 l22 30 41 -40 c23 -22 44 -38 47 -34 13 12 -5 34 -46 58 l-42 24 6
66 c4 50 2 66 -7 66 -9 0 -13 -19 -13 -62z"/>
</g>
</svg>
