<?xml version="1.0" encoding="UTF-8" standalone="no"?>
<!DOCTYPE svg PUBLIC "-//W3C//DTD SVG 20010904//EN"
 "http://www.w3.org/TR/2001/REC-SVG-20010904/DTD/svg10.dtd">
<svg version="1.0" xmlns="http://www.w3.org/2000/svg"
 width="42.000000pt" height="47.000000pt" viewBox="0 0 42.000000 47.000000"
 preserveAspectRatio="xMidYMid meet">
<metadata>
Created by POTRACE 1.0.0, written by Peter Selinger 2001-2017
</metadata>
<g transform="translate(0.000000,47.000000) scale(0.100000,-0.100000)"
>
<path d="M67 407 c-13 -29 -32 -60 -41 -70 -25 -24 -12 -37 26 -26 17 5 33 7
36 5 6 -7 -18 -49 -45 -78 -36 -38 -23 -48 39 -32 76 20 80 23 20 17 l-53 -6
47 72 c26 39 52 71 56 71 5 0 6 5 3 10 -11 18 -33 10 -39 -15 -5 -21 -12 -25
-42 -25 -39 0 -39 -3 12 71 30 43 33 59 13 59 -4 0 -18 -24 -32 -53z"/>
<path d="M190 365 l0 -50 45 3 c36 3 45 1 45 -12 0 -13 -11 -16 -52 -16 -28 0
-48 -3 -44 -7 4 -5 26 -8 49 -8 31 0 42 -4 45 -17 3 -14 -7 -18 -55 -21 l-58
-3 67 -2 c65 -2 66 -3 78 -34 10 -25 14 -29 17 -15 3 10 -1 24 -7 32 -11 13
-5 15 39 15 28 0 51 4 51 9 0 16 -21 24 -33 12 -6 -6 -28 -11 -49 -11 -31 0
-38 4 -38 20 0 17 7 20 51 20 30 0 48 4 44 10 -3 5 -25 7 -50 3 -38 -5 -45 -3
-45 12 0 14 8 16 45 13 l45 -3 0 42 c0 26 5 43 12 43 6 0 8 3 5 7 -4 3 -52 7
-107 7 l-100 1 0 -50z m90 0 c0 -34 -1 -35 -40 -35 -39 0 -40 1 -40 35 0 34 1
35 40 35 39 0 40 -1 40 -35z m90 0 c0 -34 -1 -35 -40 -35 -39 0 -40 1 -40 35
0 34 1 35 40 35 39 0 40 -1 40 -35z"/>
<path d="M230 370 c17 -33 17 -33 24 -22 3 5 -4 18 -16 28 -21 19 -21 19 -8
-6z"/>
<path d="M320 369 c-17 -30 -6 -34 14 -4 9 14 12 25 7 25 -6 0 -15 -9 -21 -21z"/>
<path d="M191 211 c0 -8 -8 -23 -18 -33 -15 -17 -15 -18 1 -18 19 0 30 21 23
47 -3 11 -5 12 -6 4z"/>
<path d="M244 207 c3 -10 6 -23 6 -28 0 -6 5 -7 10 -4 6 3 10 1 10 -4 0 -6 1
-14 3 -18 1 -5 -18 -11 -43 -14 l-45 -6 43 -1 c34 -2 42 -5 42 -22 0 -16 -8
-20 -62 -23 -35 -2 -1 -4 76 -5 124 -2 137 0 126 13 -9 11 -16 13 -24 5 -5 -5
-29 -10 -53 -10 -36 0 -43 3 -43 20 0 17 7 20 45 20 25 0 45 4 45 9 0 16 -21
24 -33 12 -6 -6 -22 -11 -35 -11 -19 0 -22 4 -17 20 4 14 2 20 -8 20 -8 0 -22
10 -31 23 -13 17 -16 18 -12 4z"/>
<path d="M360 213 c1 -11 26 -43 34 -43 14 0 5 26 -14 38 -11 7 -20 9 -20 5z"/>
<path d="M85 140 c-16 -4 -43 -11 -59 -15 -20 -4 -26 -9 -19 -16 7 -7 32 -3
79 15 65 23 64 34 -1 16z"/>
</g>
</svg>
