<?xml version="1.0" encoding="UTF-8" standalone="no"?>
<!DOCTYPE svg PUBLIC "-//W3C//DTD SVG 20010904//EN"
 "http://www.w3.org/TR/2001/REC-SVG-20010904/DTD/svg10.dtd">
<svg version="1.0" xmlns="http://www.w3.org/2000/svg"
 width="34.000000pt" height="31.000000pt" viewBox="0 0 34.000000 31.000000"
 preserveAspectRatio="xMidYMid meet">
<metadata>
Created by POTRACE 1.0.0, written by Peter Selinger 2001-2017
</metadata>
<g transform="translate(0.000000,31.000000) scale(0.100000,-0.100000)"
>
<path d="M80 271 c0 -25 -6 -34 -32 -45 -28 -12 -30 -14 -10 -15 26 -1 27 -5
5 -42 -21 -35 -16 -41 26 -29 30 8 32 7 29 -13 -2 -17 -13 -24 -46 -31 -23 -6
-42 -13 -42 -17 0 -17 20 -18 54 -4 l36 15 -7 -45 c-4 -31 -2 -45 6 -45 6 0
11 18 11 44 0 34 5 47 23 60 13 10 16 15 7 14 -30 -5 -27 30 3 42 l22 9 -22 0
c-14 1 -23 7 -23 16 0 8 -6 15 -14 15 -9 0 -12 -7 -9 -19 3 -12 -2 -20 -16
-24 -25 -6 -25 -4 -6 32 10 20 25 31 50 35 21 4 33 11 29 17 -3 6 -17 8 -29 5
-21 -5 -24 -3 -22 20 1 15 -4 29 -10 31 -9 3 -13 -6 -13 -26z"/>
<path d="M247 276 c-3 -8 -21 -20 -39 -26 -32 -12 -33 -15 -35 -68 -1 -35 -11
-73 -26 -104 -13 -26 -20 -48 -15 -48 15 0 47 63 54 107 3 24 10 43 14 43 5 0
15 3 24 6 12 4 16 0 16 -15 0 -13 -6 -21 -17 -21 -15 0 -18 -10 -20 -64 l-1
-64 35 5 c28 5 39 2 49 -12 21 -28 29 -10 30 68 1 77 -6 90 -44 80 -17 -4 -21
-2 -16 11 4 9 23 19 45 22 21 4 39 11 39 16 0 6 -14 8 -35 4 -20 -4 -35 -3
-35 3 0 5 -3 16 -6 25 -4 11 -1 16 11 16 20 0 15 24 -7 28 -9 2 -18 -4 -21
-12z m-7 -50 c0 -15 -7 -26 -20 -29 -16 -4 -20 0 -20 18 0 14 7 25 18 28 9 3
18 5 20 6 1 0 2 -10 2 -23z m50 -128 l0 -53 -35 -2 c-25 -1 -35 3 -35 13 0 8
10 14 24 14 14 0 28 5 32 12 5 8 -2 9 -25 5 -24 -5 -31 -3 -28 6 2 6 17 15 33
18 31 7 23 12 -13 9 -27 -2 -31 16 -5 23 48 13 52 9 52 -45z"/>
</g>
</svg>
