<?xml version="1.0" encoding="UTF-8" standalone="no"?>
<!DOCTYPE svg PUBLIC "-//W3C//DTD SVG 20010904//EN"
 "http://www.w3.org/TR/2001/REC-SVG-20010904/DTD/svg10.dtd">
<svg version="1.0" xmlns="http://www.w3.org/2000/svg"
 width="37.000000pt" height="37.000000pt" viewBox="0 0 37.000000 37.000000"
 preserveAspectRatio="xMidYMid meet">
<metadata>
Created by POTRACE 1.0.0, written by Peter Selinger 2001-2017
</metadata>
<g transform="translate(0.000000,37.000000) scale(0.100000,-0.100000)"
>
<path d="M228 302 c4 -49 4 -49 -29 -57 -30 -7 -31 -9 -10 -12 23 -5 23 -5
-10 -40 -21 -22 -27 -32 -14 -25 11 5 29 20 40 32 l20 22 7 -24 6 -23 7 23 8
23 27 -26 c20 -20 34 -25 49 -20 19 6 15 10 -31 33 l-52 26 32 8 c37 10 35 28
-2 21 -23 -5 -25 -2 -28 38 -2 23 -8 44 -14 46 -8 3 -10 -12 -6 -45z"/>
<path d="M68 276 c4 -51 3 -54 -24 -64 l-29 -10 28 -1 c24 -1 27 -5 27 -37 0
-30 -4 -37 -30 -45 -17 -6 -30 -15 -30 -20 0 -18 36 -8 80 22 25 17 35 28 23
24 -21 -6 -23 -3 -23 28 0 27 5 36 23 42 l22 8 -23 4 c-20 4 -21 9 -16 43 5
31 3 40 -13 48 -18 10 -19 8 -15 -42z"/>
<path d="M272 295 c-12 -25 -12 -25 13 -9 27 18 33 34 12 34 -8 0 -19 -11 -25
-25z"/>
<path d="M180 291 c0 -5 7 -14 15 -21 12 -10 15 -10 15 3 0 8 -7 17 -15 21 -8
3 -15 2 -15 -3z"/>
<path d="M210 157 c0 -8 -17 -18 -37 -24 l-38 -10 33 -2 c21 -1 31 -5 27 -12
-4 -6 2 -13 14 -16 31 -8 26 -19 -16 -36 -21 -9 -32 -16 -25 -16 7 -1 29 6 49
14 33 14 38 14 69 -5 28 -16 34 -17 34 -4 0 8 -11 20 -25 26 -26 12 -29 17
-19 42 4 11 19 16 51 16 31 0 43 4 40 13 -4 13 -88 14 -119 2 -13 -5 -18 -2
-18 9 0 9 -4 16 -10 16 -5 0 -10 -6 -10 -13z m48 -39 c-7 -19 -38 -22 -38 -4
0 10 9 16 21 16 12 0 19 -5 17 -12z"/>
</g>
</svg>
