<?xml version="1.0" encoding="UTF-8" standalone="no"?>
<!DOCTYPE svg PUBLIC "-//W3C//DTD SVG 20010904//EN"
 "http://www.w3.org/TR/2001/REC-SVG-20010904/DTD/svg10.dtd">
<svg version="1.0" xmlns="http://www.w3.org/2000/svg"
 width="43.000000pt" height="45.000000pt" viewBox="0 0 43.000000 45.000000"
 preserveAspectRatio="xMidYMid meet">
<metadata>
Created by POTRACE 1.0.0, written by Peter Selinger 2001-2017
</metadata>
<g transform="translate(0.000000,45.000000) scale(0.100000,-0.100000)"
>
<path d="M278 376 c19 -39 35 -47 30 -15 -2 12 -13 28 -25 36 l-21 14 16 -35z"/>
<path d="M63 362 c14 -27 25 -38 32 -31 12 12 -2 36 -33 57 l-21 14 22 -40z"/>
<path d="M194 381 c-5 -5 -22 -11 -39 -14 -27 -4 -26 -4 8 -6 36 -1 37 -2 37
-37 0 -34 -2 -36 -29 -32 -28 4 -30 2 -33 -36 -3 -23 -8 -49 -12 -58 -7 -15
-3 -18 28 -18 35 0 36 -1 36 -39 0 -22 -4 -51 -10 -66 -8 -21 -14 -24 -37 -19
l-28 6 23 -17 c28 -20 50 -14 56 17 22 120 23 133 12 140 -6 4 -15 3 -20 -2
-6 -6 -16 -10 -24 -10 -11 0 -13 10 -9 41 7 50 13 57 37 41 19 -11 20 -9 20
31 0 24 5 48 10 53 8 8 7 14 -3 22 -8 7 -17 8 -23 3z"/>
<path d="M345 340 c-3 -5 -34 -11 -68 -12 -41 -1 -50 -3 -25 -5 36 -4 37 -5
26 -31 -7 -15 -20 -39 -30 -54 -26 -39 -23 -48 17 -41 19 3 35 1 35 -4 0 -13
-54 -96 -73 -112 -20 -16 -12 -34 11 -27 10 2 38 7 65 11 39 5 47 3 47 -9 0
-9 5 -16 10 -16 21 0 9 41 -21 72 -28 30 -30 30 -15 6 9 -15 16 -29 16 -32 0
-2 -20 -6 -45 -8 -25 -2 -45 -2 -45 -1 0 9 96 151 109 161 14 11 14 14 1 22
-11 7 -18 3 -28 -15 -12 -24 -49 -41 -73 -33 -6 2 3 23 24 50 23 30 32 48 24
52 -7 2 10 5 37 5 42 1 47 3 36 16 -14 17 -26 19 -35 5z"/>
<path d="M45 271 c-11 -5 -23 -7 -27 -4 -5 2 -8 -1 -8 -8 0 -7 10 -9 26 -6
l26 5 -3 -99 c-2 -54 0 -102 4 -106 7 -7 28 16 48 52 9 16 9 18 -2 8 -7 -7
-17 -13 -21 -13 -13 0 -10 148 4 152 14 5 1 28 -15 27 -7 0 -21 -4 -32 -8z"/>
</g>
</svg>
