<?xml version="1.0" encoding="UTF-8" standalone="no"?>
<!DOCTYPE svg PUBLIC "-//W3C//DTD SVG 20010904//EN"
 "http://www.w3.org/TR/2001/REC-SVG-20010904/DTD/svg10.dtd">
<svg version="1.0" xmlns="http://www.w3.org/2000/svg"
 width="47.000000pt" height="43.000000pt" viewBox="0 0 47.000000 43.000000"
 preserveAspectRatio="xMidYMid meet">
<metadata>
Created by POTRACE 1.0.0, written by Peter Selinger 2001-2017
</metadata>
<g transform="translate(0.000000,43.000000) scale(0.100000,-0.100000)"
>
<path d="M270 335 c7 -30 5 -35 -11 -35 -10 0 -19 -5 -19 -11 0 -6 9 -9 20 -6
15 4 24 -2 36 -25 8 -16 14 -31 12 -33 -2 -1 -21 -14 -42 -29 -21 -14 -33 -26
-27 -26 7 0 28 11 47 24 35 23 35 23 72 5 58 -30 72 -26 65 19 -7 48 -13 54
-13 14 0 -18 -2 -32 -4 -32 -15 0 -66 24 -66 31 0 5 11 16 26 25 17 12 22 20
15 27 -7 7 -17 2 -32 -17 -20 -25 -22 -26 -35 -9 -23 30 -16 40 32 48 69 10
77 14 62 32 -10 13 -13 13 -24 -2 -7 -9 -31 -19 -53 -22 -42 -6 -47 0 -42 45
1 6 -5 12 -13 12 -11 0 -12 -8 -6 -35z"/>
<path d="M93 320 c-1 -71 -3 -86 -12 -72 -6 11 -9 10 -13 -5 -3 -10 -9 -26
-13 -35 -4 -11 -3 -18 3 -18 6 0 14 9 17 20 5 17 15 20 68 20 58 -1 61 -2 42
-16 -11 -9 -35 -14 -55 -12 l-35 3 -2 -103 c-1 -59 2 -102 8 -102 5 0 9 20 9
45 0 43 1 45 30 45 28 0 30 -3 30 -34 0 -28 -4 -35 -22 -39 -21 -3 -21 -4 5
-11 15 -5 30 -7 32 -4 2 2 5 50 6 106 1 90 4 104 21 113 22 12 14 33 -9 24
-14 -5 -15 3 -11 52 l6 58 -53 0 -52 0 0 -35z m87 -30 c0 -39 -4 -50 -16 -50
-12 0 -15 8 -12 33 3 28 0 32 -19 29 -18 -3 -23 2 -23 17 0 17 6 21 35 21 l35
0 0 -50z m-40 -25 c0 -16 -6 -25 -15 -25 -9 0 -15 9 -15 25 0 16 6 25 15 25 9
0 15 -9 15 -25z m30 -95 c0 -16 -7 -20 -30 -20 -23 0 -30 4 -30 20 0 16 7 20
30 20 23 0 30 -4 30 -20z m0 -50 c0 -16 -7 -20 -30 -20 -23 0 -30 4 -30 20 0
16 7 20 30 20 23 0 30 -4 30 -20z"/>
<path d="M395 160 c-3 -6 -46 -10 -101 -10 -60 0 -94 -4 -94 -11 0 -7 11 -8
29 -4 16 3 32 2 35 -3 11 -19 -8 -83 -32 -107 -13 -14 -19 -25 -13 -25 25 0
60 52 63 93 2 34 7 42 23 42 17 0 21 -8 25 -65 l5 -65 45 0 c30 0 45 4 44 13
-1 6 -2 29 -4 50 l-3 37 -6 -40 c-5 -36 -9 -40 -36 -40 -30 0 -30 1 -30 55 l0
55 44 5 c38 4 42 7 29 18 -11 9 -18 10 -23 2z"/>
</g>
</svg>
