<?xml version="1.0" encoding="UTF-8" standalone="no"?>
<!DOCTYPE svg PUBLIC "-//W3C//DTD SVG 20010904//EN"
 "http://www.w3.org/TR/2001/REC-SVG-20010904/DTD/svg10.dtd">
<svg version="1.0" xmlns="http://www.w3.org/2000/svg"
 width="40.000000pt" height="38.000000pt" viewBox="0 0 40.000000 38.000000"
 preserveAspectRatio="xMidYMid meet">
<metadata>
Created by POTRACE 1.0.0, written by Peter Selinger 2001-2017
</metadata>
<g transform="translate(0.000000,38.000000) scale(0.100000,-0.100000)"
>
<path d="M75 320 c-14 -28 -34 -59 -45 -70 -25 -25 -10 -34 42 -25 l40 7 -32
-47 c-17 -25 -38 -49 -46 -52 -11 -4 -12 -9 -3 -19 8 -10 16 -11 29 -4 10 6
29 10 42 10 13 0 30 5 38 10 10 7 -1 8 -35 3 l-49 -6 39 54 c21 30 47 63 57
75 22 25 23 34 3 34 -9 0 -21 -11 -27 -25 -9 -20 -18 -25 -49 -25 l-38 0 39
53 c42 55 48 69 31 75 -5 2 -22 -20 -36 -48z"/>
<path d="M260 290 l0 -80 -56 0 c-37 0 -53 -4 -48 -11 3 -6 19 -9 35 -5 28 5
29 5 29 -39 0 -55 -14 -92 -48 -127 -14 -16 -21 -28 -15 -28 6 0 24 15 41 34
24 27 31 47 37 100 6 61 8 66 31 66 23 0 24 -2 24 -84 0 -113 2 -116 61 -116
53 0 55 3 39 65 l-8 30 -1 -36 c-1 -30 -5 -37 -24 -41 -43 -8 -47 -1 -47 93
l0 89 46 0 c41 0 45 2 34 15 -9 11 -16 13 -24 5 -5 -5 -28 -10 -49 -10 l-39 0
4 80 c2 60 0 80 -9 80 -9 0 -13 -22 -13 -80z"/>
<path d="M190 295 c32 -55 40 -63 40 -39 0 11 -14 33 -32 50 l-31 29 23 -40z"/>
<path d="M326 283 c-33 -58 -28 -65 10 -13 16 22 32 40 37 40 14 0 7 20 -7 20
-8 0 -26 -21 -40 -47z"/>
<path d="M105 60 c-27 -10 -60 -19 -72 -19 -23 -1 -31 -15 -14 -25 7 -5 147
48 160 60 10 9 -28 1 -74 -16z"/>
</g>
</svg>
