<?xml version="1.0" encoding="UTF-8" standalone="no"?>
<!DOCTYPE svg PUBLIC "-//W3C//DTD SVG 20010904//EN"
 "http://www.w3.org/TR/2001/REC-SVG-20010904/DTD/svg10.dtd">
<svg version="1.0" xmlns="http://www.w3.org/2000/svg"
 width="41.000000pt" height="38.000000pt" viewBox="0 0 41.000000 38.000000"
 preserveAspectRatio="xMidYMid meet">
<metadata>
Created by POTRACE 1.0.0, written by Peter Selinger 2001-2017
</metadata>
<g transform="translate(0.000000,38.000000) scale(0.100000,-0.100000)"
>
<path d="M56 310 c-16 -33 -32 -60 -37 -60 -5 0 -9 -7 -9 -15 0 -15 19 -14 68
1 6 2 12 1 12 -2 0 -13 -62 -94 -72 -94 -8 0 -9 -3 -2 -10 11 -11 115 4 147
21 15 8 17 2 17 -71 0 -47 4 -80 10 -80 6 0 10 5 10 10 0 6 30 10 70 10 40 0
70 -4 70 -10 0 -5 5 -10 10 -10 6 0 10 28 10 64 0 36 5 68 10 71 6 4 8 10 5
15 -3 4 5 11 18 15 22 6 22 7 -4 14 -33 11 -79 41 -79 52 0 5 20 9 45 9 25 0
45 5 45 10 0 16 -30 24 -43 11 -6 -6 -26 -11 -44 -11 -32 0 -33 1 -33 40 l0
39 51 7 c29 4 47 10 41 16 -5 5 -50 2 -108 -7 -103 -17 -147 -32 -56 -20 l52
7 0 -41 0 -41 -52 -2 c-44 -1 -46 -2 -15 -5 20 -2 37 -8 37 -12 0 -4 -17 -23
-37 -43 -31 -28 -49 -37 -92 -42 l-54 -7 18 28 c10 15 33 49 51 75 29 42 33
58 14 58 -4 0 -12 -11 -18 -24 -9 -20 -59 -42 -71 -31 -5 6 62 105 71 105 5 0
6 5 3 10 -14 22 -31 7 -59 -50z m290 -152 c-15 -11 -144 -10 -150 0 -3 5 10
24 29 42 l35 34 0 -37 c0 -20 5 -37 10 -37 6 0 10 19 10 41 l0 41 38 -38 c24
-24 34 -42 28 -46z m-86 -43 c0 -21 -5 -25 -30 -25 -25 0 -30 4 -30 25 0 21 5
25 30 25 25 0 30 -4 30 -25z m80 0 c0 -21 -5 -25 -30 -25 -25 0 -30 4 -30 25
0 21 5 25 30 25 25 0 30 -4 30 -25z m-80 -60 c0 -21 -5 -25 -30 -25 -25 0 -30
4 -30 25 0 21 5 25 30 25 25 0 30 -4 30 -25z m80 0 c0 -21 -5 -25 -30 -25 -25
0 -30 4 -30 25 0 21 5 25 30 25 25 0 30 -4 30 -25z"/>
<path d="M321 289 c-26 -35 -24 -36 17 -5 23 17 29 25 19 29 -9 3 -23 -7 -36
-24z"/>
<path d="M207 284 c9 -15 19 -21 21 -15 4 13 -16 41 -29 41 -5 0 -2 -12 8 -26z"/>
<path d="M62 63 c-42 -10 -60 -19 -54 -25 6 -6 34 -1 78 16 77 28 70 31 -24 9z"/>
</g>
</svg>
