<?xml version="1.0" encoding="UTF-8" standalone="no"?>
<!DOCTYPE svg PUBLIC "-//W3C//DTD SVG 20010904//EN"
 "http://www.w3.org/TR/2001/REC-SVG-20010904/DTD/svg10.dtd">
<svg version="1.0" xmlns="http://www.w3.org/2000/svg"
 width="34.000000pt" height="40.000000pt" viewBox="0 0 34.000000 40.000000"
 preserveAspectRatio="xMidYMid meet">
<metadata>
Created by POTRACE 1.0.0, written by Peter Selinger 2001-2017
</metadata>
<g transform="translate(0.000000,40.000000) scale(0.100000,-0.100000)"
>
<path d="M49 373 c22 -41 38 -56 45 -44 9 13 -8 37 -36 52 -17 9 -18 8 -9 -8z"/>
<path d="M212 363 c-117 -5 -114 -23 4 -23 l85 0 -3 -157 -3 -158 -29 2 c-38
3 -22 -14 22 -23 l32 -6 0 170 c0 122 3 171 12 174 15 5 1 29 -15 26 -7 -1
-54 -4 -105 -5z"/>
<path d="M0 169 c0 -106 4 -169 10 -169 6 0 10 58 10 153 0 95 4 157 11 164 7
7 4 12 -10 16 -21 5 -21 2 -21 -164z"/>
<path d="M148 288 c22 -22 13 -28 -40 -29 -29 -1 -44 -3 -33 -6 20 -5 45 -30
45 -44 0 -4 -19 -10 -42 -12 -24 -2 12 -4 80 -5 71 -1 122 2 122 7 0 16 -21
24 -33 12 -14 -14 -57 -14 -57 -1 0 6 7 13 15 16 8 4 12 10 9 15 -3 5 4 9 15
9 12 0 21 5 21 10 0 6 -15 8 -39 4 -33 -5 -39 -3 -44 15 -3 12 -11 21 -18 21
-10 0 -10 -3 -1 -12z m42 -51 c0 -18 -21 -37 -39 -37 -9 0 -21 11 -28 25 -11
24 -10 25 28 25 25 0 39 -5 39 -13z"/>
<path d="M80 110 c1 -56 2 -63 14 -47 19 24 116 25 116 0 0 -41 18 7 22 56 l3
54 -77 1 -78 1 0 -65z m130 35 c0 -12 -13 -15 -55 -15 -42 0 -55 3 -55 15 0
12 13 15 55 15 42 0 55 -3 55 -15z m0 -40 c0 -12 -13 -15 -55 -15 -42 0 -55 3
-55 15 0 12 13 15 55 15 42 0 55 -3 55 -15z"/>
</g>
</svg>
