<?xml version="1.0" encoding="UTF-8" standalone="no"?>
<!DOCTYPE svg PUBLIC "-//W3C//DTD SVG 20010904//EN"
 "http://www.w3.org/TR/2001/REC-SVG-20010904/DTD/svg10.dtd">
<svg version="1.0" xmlns="http://www.w3.org/2000/svg"
 width="70.000000pt" height="61.000000pt" viewBox="0 0 70.000000 61.000000"
 preserveAspectRatio="xMidYMid meet">
<metadata>
Created by POTRACE 1.0.0, written by Peter Selinger 2001-2017
</metadata>
<g transform="translate(0.000000,61.000000) scale(0.100000,-0.100000)"
>
<path d="M450 524 l0 -74 -61 0 c-42 0 -58 -3 -53 -11 4 -7 27 -10 60 -7 l54
5 0 -74 0 -73 -81 0 c-51 0 -78 -4 -74 -10 4 -6 33 -8 77 -3 l71 6 -6 -29
c-10 -50 -47 -141 -68 -168 -11 -14 -29 -26 -38 -26 -14 0 -17 -6 -13 -26 4
-21 9 -24 26 -19 52 15 193 45 214 45 18 0 22 -5 22 -30 0 -23 4 -30 20 -30
22 0 60 33 60 51 0 32 -91 131 -106 116 -2 -2 3 -21 11 -42 9 -20 15 -38 13
-40 -8 -7 -178 -14 -178 -8 0 5 28 44 61 88 l60 79 -23 18 c-22 17 -20 18 90
18 61 0 112 4 112 8 0 11 -34 42 -46 42 -5 0 -15 -9 -22 -20 -10 -16 -23 -20
-67 -20 l-55 0 0 75 0 75 77 0 76 0 -23 25 c-20 21 -26 23 -39 11 -9 -7 -33
-16 -55 -19 l-39 -6 5 63 5 63 -33 11 -34 10 0 -74z"/>
<path d="M110 392 c0 -199 -12 -266 -60 -345 -34 -55 -31 -60 10 -14 44 48 82
130 89 195 6 53 8 57 36 63 l30 7 -32 1 c-28 1 -32 4 -29 24 3 12 5 34 5 50 1
22 6 27 26 27 14 0 25 5 25 10 0 6 -11 10 -25 10 -24 0 -25 3 -25 55 0 54 0
55 30 55 l30 0 0 -212 c0 -175 -3 -214 -15 -228 -17 -18 -10 -53 9 -47 6 2 21
18 34 37 21 31 22 43 24 236 1 112 2 211 2 220 1 22 -32 43 -42 28 -12 -19
-65 -23 -94 -8 l-28 15 0 -179z"/>
</g>
</svg>
