<?xml version="1.0" encoding="UTF-8" standalone="no"?>
<!DOCTYPE svg PUBLIC "-//W3C//DTD SVG 20010904//EN"
 "http://www.w3.org/TR/2001/REC-SVG-20010904/DTD/svg10.dtd">
<svg version="1.0" xmlns="http://www.w3.org/2000/svg"
 width="484.000000pt" height="487.000000pt" viewBox="0 0 484.000000 487.000000"
 preserveAspectRatio="xMidYMid meet">
<metadata>
Created by POTRACE 1.0.0, written by Peter Selinger 2001-2017
</metadata>
<g transform="translate(0.000000,487.000000) scale(0.100000,-0.100000)"
>
<path d="M4210 4833 c-55 -44 -253 -139 -375 -181 -272 -93 -570 -161 -1033
-236 l-214 -35 -170 85 -170 85 6 -93 c26 -372 36 -1389 16 -1748 -60 -1097
-314 -1820 -898 -2553 l-54 -69 32 -33 33 -34 61 52 c312 266 606 659 781
1046 223 490 324 962 361 1684 l6 117 494 0 494 0 0 -1142 c0 -629 -5 -1284
-10 -1457 -6 -173 -9 -316 -7 -317 2 -2 78 25 170 59 l168 62 -6 45 c-4 25 -9
654 -11 1398 l-5 1352 476 0 476 0 -23 29 c-84 104 -332 391 -338 391 -4 0
-77 -61 -163 -135 l-156 -135 -780 0 -781 0 0 580 0 580 23 4 c12 3 281 37
597 77 1097 136 1389 174 1395 181 5 5 -341 380 -348 377 -1 0 -22 -16 -47
-36z"/>
<path d="M587 4712 c-15 -15 -27 -31 -27 -36 0 -4 26 -39 57 -79 145 -181 258
-376 336 -579 67 -172 101 -218 160 -218 29 0 61 28 106 93 80 117 98 264 46
371 -39 82 -128 166 -282 269 -106 70 -347 207 -364 207 -3 0 -17 -13 -32 -28z"/>
<path d="M917 3327 c-20 -34 -54 -87 -75 -117 l-37 -55 -398 -5 -397 -5 92
-91 93 -92 105 19 c66 12 185 21 318 25 l212 7 -2 -1014 -3 -1014 -33 -87
c-18 -48 -51 -112 -74 -144 l-40 -57 160 -160 159 -159 33 59 c106 188 370
519 741 927 79 87 157 173 173 192 l29 35 -28 30 c-16 16 -31 29 -35 29 -3 0
-35 -24 -70 -53 -274 -224 -700 -567 -704 -567 -3 0 -6 431 -6 958 l0 957 90
79 c50 43 90 82 90 86 0 7 -306 248 -345 272 -6 3 -27 -22 -48 -55z"/>
</g>
</svg>
