<?xml version="1.0" encoding="UTF-8" standalone="no"?>
<!DOCTYPE svg PUBLIC "-//W3C//DTD SVG 20010904//EN"
 "http://www.w3.org/TR/2001/REC-SVG-20010904/DTD/svg10.dtd">
<svg version="1.0" xmlns="http://www.w3.org/2000/svg"
 width="43.000000pt" height="55.000000pt" viewBox="0 0 43.000000 55.000000"
 preserveAspectRatio="xMidYMid meet">
<metadata>
Created by POTRACE 1.0.0, written by Peter Selinger 2001-2017
</metadata>
<g transform="translate(0.000000,55.000000) scale(0.100000,-0.100000)"
>
<path d="M80 415 c0 -41 -2 -45 -25 -45 -14 0 -25 -4 -25 -9 0 -4 11 -6 25 -3
23 4 25 2 25 -37 0 -35 -4 -43 -30 -56 -17 -9 -28 -20 -24 -26 4 -6 15 -4 30
6 l24 15 0 -70 0 -70 -32 0 -33 -1 28 -15 c49 -27 57 -15 57 84 0 81 2 91 23
106 l22 17 -22 -11 c-22 -10 -23 -8 -23 25 0 32 2 35 31 35 18 0 28 4 24 10
-3 6 -18 7 -32 4 -26 -7 -26 -6 -21 40 4 35 2 46 -8 46 -10 0 -14 -13 -14 -45z"/>
<path d="M345 439 c-5 -8 -32 -10 -86 -7 -44 3 -79 1 -79 -4 0 -4 48 -8 106
-8 80 0 105 3 102 13 -6 16 -34 21 -43 6z"/>
<path d="M170 229 c0 -93 4 -149 10 -149 6 0 10 38 11 93 0 65 3 85 9 70 5
-13 14 -23 20 -23 15 0 12 15 -10 43 -26 32 -27 94 -2 99 12 3 9 6 -10 10
l-28 5 0 -148z"/>
<path d="M239 374 c0 -5 0 -69 1 -141 1 -133 1 -133 -22 -134 l-23 0 23 -11
c12 -6 24 -9 26 -7 7 7 9 289 3 296 -4 3 -7 2 -8 -3z"/>
<path d="M280 230 c0 -93 4 -150 10 -150 6 0 10 40 11 98 1 81 3 92 12 70 6
-16 14 -28 19 -28 15 0 8 27 -13 54 -15 19 -20 37 -17 61 2 22 -1 36 -9 39
-10 4 -13 -26 -13 -144z"/>
<path d="M340 369 c-16 -4 -19 -7 -7 -8 15 -1 17 -14 17 -131 0 -128 0 -130
-22 -131 l-23 0 23 -11 c14 -7 26 -8 32 -2 8 9 17 281 9 287 -2 2 -15 0 -29
-4z"/>
</g>
</svg>
