<?xml version="1.0" encoding="UTF-8" standalone="no"?>
<!DOCTYPE svg PUBLIC "-//W3C//DTD SVG 20010904//EN"
 "http://www.w3.org/TR/2001/REC-SVG-20010904/DTD/svg10.dtd">
<svg version="1.0" xmlns="http://www.w3.org/2000/svg"
 width="44.000000pt" height="47.000000pt" viewBox="0 0 44.000000 47.000000"
 preserveAspectRatio="xMidYMid meet">
<metadata>
Created by POTRACE 1.0.0, written by Peter Selinger 2001-2017
</metadata>
<g transform="translate(0.000000,47.000000) scale(0.100000,-0.100000)"
>
<path d="M290 380 l0 -42 -69 4 -68 3 -7 -110 c-4 -87 -11 -120 -30 -158 -21
-42 -21 -46 -4 -30 36 32 43 57 48 168 l5 110 63 3 62 3 0 -33 c0 -18 3 -63 6
-99 l7 -67 -43 -46 c-53 -57 -45 -60 15 -5 27 25 45 36 45 27 0 -14 60 -78 73
-78 4 0 7 26 7 58 0 40 -3 53 -10 42 -5 -8 -10 -26 -10 -39 l0 -24 -25 23
c-32 30 -32 54 3 124 25 48 27 56 12 56 -12 0 -21 -14 -30 -45 -7 -24 -16 -42
-21 -39 -5 3 -9 36 -9 75 l0 69 47 0 c44 0 45 1 30 18 -10 10 -17 23 -17 29 0
6 -7 14 -16 17 -27 10 -28 7 -6 -17 25 -26 20 -37 -15 -37 -22 0 -24 4 -21 37
2 22 -2 38 -10 41 -8 2 -12 -9 -12 -38z"/>
<path d="M60 383 c0 -47 -11 -72 -34 -76 -20 -4 -20 -4 2 -6 17 -1 22 -6 18
-18 -3 -10 -8 -39 -11 -65 -6 -40 -4 -48 14 -57 29 -16 26 -32 -15 -88 l-35
-48 45 46 c40 42 46 45 60 30 14 -13 16 -13 16 0 0 8 -5 20 -11 26 -11 11 5
133 21 165 11 19 -14 47 -25 28 -3 -5 -13 -10 -22 -10 -12 0 -14 7 -8 38 4 20
11 39 16 40 13 5 0 22 -17 22 -9 0 -14 -10 -14 -27z m40 -115 c0 -56 -12 -108
-24 -108 -26 0 -33 21 -24 68 13 67 16 72 33 72 10 0 15 -10 15 -32z"/>
<path d="M245 291 c-6 -5 -23 -11 -40 -14 -19 -2 -10 -5 23 -6 38 -1 52 3 50
11 -6 16 -22 20 -33 9z"/>
<path d="M216 199 c-6 -61 -37 -129 -58 -129 -6 0 -8 -3 -5 -7 9 -9 46 26 64
61 l15 29 19 -24 c15 -19 19 -20 19 -7 0 9 -10 24 -22 33 l-23 16 28 23 c15
12 24 25 20 30 -4 4 -16 -3 -26 -16 l-19 -23 6 38 c2 20 1 37 -3 37 -5 0 -11
-28 -15 -61z"/>
<path d="M183 181 c-6 -18 -7 -31 -2 -31 12 0 22 24 17 45 -2 12 -7 7 -15 -14z"/>
</g>
</svg>
