<?xml version="1.0" encoding="UTF-8" standalone="no"?>
<!DOCTYPE svg PUBLIC "-//W3C//DTD SVG 20010904//EN"
 "http://www.w3.org/TR/2001/REC-SVG-20010904/DTD/svg10.dtd">
<svg version="1.0" xmlns="http://www.w3.org/2000/svg"
 width="45.000000pt" height="48.000000pt" viewBox="0 0 45.000000 48.000000"
 preserveAspectRatio="xMidYMid meet">
<metadata>
Created by POTRACE 1.0.0, written by Peter Selinger 2001-2017
</metadata>
<g transform="translate(0.000000,48.000000) scale(0.100000,-0.100000)"
>
<path d="M87 376 c-10 -23 -27 -53 -38 -65 -26 -28 -18 -36 28 -32 39 3 39 1
-4 -57 -14 -18 -23 -35 -20 -38 2 -3 29 2 58 10 52 15 53 15 10 10 -47 -7 -47
-7 -11 46 46 69 60 99 50 105 -5 3 -17 -10 -27 -29 -17 -36 -27 -41 -57 -30
-12 5 -8 16 20 59 38 60 39 65 22 65 -7 0 -21 -20 -31 -44z"/>
<path d="M202 354 c-18 -36 -28 -63 -22 -59 6 4 10 -24 10 -82 0 -65 -5 -100
-20 -133 l-20 -45 20 24 c11 13 25 43 31 67 15 60 39 59 39 -1 0 -25 5 -45 10
-45 6 0 10 20 10 45 0 33 4 45 15 45 11 0 15 -12 15 -50 0 -48 -1 -50 -27 -50
l-28 0 25 -14 c33 -17 44 -5 42 43 -2 34 0 40 20 44 l23 4 -22 8 c-20 6 -23
14 -23 57 0 41 4 54 25 70 13 10 30 37 36 59 9 28 18 39 31 39 30 0 21 -62
-10 -70 -21 -5 -21 -6 -4 -17 28 -17 38 -4 45 56 6 51 6 53 -16 47 -12 -3 -40
-6 -62 -7 -23 -1 -31 -4 -17 -6 26 -5 28 -23 6 -69 -18 -37 -35 -46 -27 -14 5
18 2 19 -28 13 -32 -6 -33 -5 -19 13 8 10 19 22 24 25 16 12 -3 26 -29 21 -20
-3 -24 -1 -19 12 3 9 10 16 15 16 5 0 9 5 9 10 0 6 -6 10 -13 10 -7 0 -27 -30
-45 -66z m58 -2 c0 -20 -28 -45 -44 -39 -14 6 -14 10 -4 27 12 19 48 28 48 12z
m-20 -82 c0 -17 -5 -30 -12 -31 -10 0 -10 -2 0 -6 18 -7 15 -53 -3 -53 -12 0
-15 13 -15 60 0 47 3 60 15 60 10 0 15 -10 15 -30z m50 -30 c0 -47 -3 -60 -15
-60 -12 0 -15 13 -15 60 0 47 3 60 15 60 12 0 15 -13 15 -60z"/>
<path d="M270 235 c0 -3 2 -5 5 -5 3 0 5 2 5 5 0 3 -2 5 -5 5 -3 0 -5 -2 -5
-5z"/>
<path d="M370 245 c0 -14 -5 -25 -11 -25 -6 0 -8 9 -4 20 4 14 2 20 -8 20 -8
0 -17 -12 -20 -27 -3 -16 -8 -37 -12 -48 -4 -16 -3 -15 6 3 7 12 20 22 31 22
16 0 18 -9 18 -85 0 -50 4 -85 10 -85 6 0 10 35 10 85 0 84 0 85 25 85 14 0
25 5 25 11 0 7 -10 9 -26 5 -24 -6 -26 -5 -22 18 4 18 1 26 -8 26 -8 0 -14
-11 -14 -25z"/>
<path d="M410 159 c-8 -5 -13 -9 -10 -10 3 0 13 -2 23 -4 9 -2 17 1 17 5 0 15
-15 19 -30 9z"/>
<path d="M350 150 c0 -7 3 -10 7 -7 3 4 3 10 0 14 -4 3 -7 0 -7 -7z"/>
<path d="M103 127 c-35 -11 -63 -26 -63 -33 0 -12 102 26 125 47 11 11 13 11
-62 -14z"/>
</g>
</svg>
