<?xml version="1.0" encoding="UTF-8" standalone="no"?>
<!DOCTYPE svg PUBLIC "-//W3C//DTD SVG 20010904//EN"
 "http://www.w3.org/TR/2001/REC-SVG-20010904/DTD/svg10.dtd">
<svg version="1.0" xmlns="http://www.w3.org/2000/svg"
 width="40.000000pt" height="39.000000pt" viewBox="0 0 40.000000 39.000000"
 preserveAspectRatio="xMidYMid meet">
<metadata>
Created by POTRACE 1.0.0, written by Peter Selinger 2001-2017
</metadata>
<g transform="translate(0.000000,39.000000) scale(0.100000,-0.100000)"
>
<path d="M196 306 c-29 -93 -31 -106 -16 -106 6 0 10 -28 10 -65 0 -61 13 -85
26 -50 8 19 44 20 44 0 0 -9 -17 -19 -45 -26 -44 -11 -53 -22 -37 -46 5 -8 23
-4 64 15 56 26 72 46 46 54 -8 3 -4 9 10 17 22 11 22 11 22 -44 0 -41 4 -55
14 -55 11 0 16 15 18 53 3 45 6 52 26 55 14 2 22 10 22 22 0 22 -16 35 -25 20
-11 -18 -25 -10 -25 15 0 20 5 25 25 25 27 0 31 10 14 42 -11 21 -12 21 -25 3
-13 -18 -14 -17 -14 8 0 22 5 27 25 27 18 0 25 5 25 19 0 11 -5 23 -10 26 -6
3 -7 18 -4 32 4 16 2 28 -7 33 -17 11 -29 3 -29 -21 0 -26 -6 -24 -35 9 -27
30 -31 19 -16 -36 11 -37 -1 -42 -23 -11 -9 14 -19 18 -28 13 -10 -6 -10 -4 1
9 11 14 11 20 1 32 -7 8 -16 15 -20 15 -4 0 -19 -38 -34 -84z m31 -38 c-3 -8
-6 -5 -6 6 -1 11 2 17 5 13 3 -3 4 -12 1 -19z m93 -23 c0 -15 -6 -25 -14 -25
-9 0 -13 10 -12 25 1 33 26 33 26 0z m-90 -20 c0 -3 -2 -5 -5 -5 -3 0 -5 2 -5
5 0 3 2 5 5 5 3 0 5 -2 5 -5z m90 -60 c0 -16 -6 -25 -15 -25 -15 0 -21 31 -8
43 13 14 23 6 23 -18z"/>
<path d="M50 281 c0 -51 3 -62 12 -53 30 30 38 13 38 -78 0 -50 -2 -90 -4 -90
-2 0 -12 -3 -21 -6 -15 -6 -16 1 -13 65 2 52 0 71 -9 71 -9 0 -13 -22 -13 -75
0 -60 -3 -75 -15 -75 -16 0 -20 -12 -8 -23 3 -4 11 -3 17 2 6 4 34 16 61 25
65 21 92 38 48 30 -33 -6 -33 -6 -33 35 0 39 1 41 31 41 18 0 28 4 24 10 -3 6
-17 7 -31 4 -22 -6 -24 -4 -24 35 0 29 4 41 14 41 8 0 17 -6 19 -12 3 -7 6 10
6 37 1 28 6 56 13 63 14 14 12 14 -59 16 l-53 1 0 -64z m90 9 c0 -39 -1 -40
-34 -40 -27 0 -34 4 -38 23 -8 43 1 57 38 57 33 0 34 -1 34 -40z"/>
</g>
</svg>
