<?xml version="1.0" encoding="UTF-8" standalone="no"?>
<!DOCTYPE svg PUBLIC "-//W3C//DTD SVG 20010904//EN"
 "http://www.w3.org/TR/2001/REC-SVG-20010904/DTD/svg10.dtd">
<svg version="1.0" xmlns="http://www.w3.org/2000/svg"
 width="48.000000pt" height="49.000000pt" viewBox="0 0 48.000000 49.000000"
 preserveAspectRatio="xMidYMid meet">
<metadata>
Created by POTRACE 1.0.0, written by Peter Selinger 2001-2017
</metadata>
<g transform="translate(0.000000,49.000000) scale(0.100000,-0.100000)"
>
<path d="M339 420 c-25 -19 -29 -19 -69 -5 -24 8 -45 13 -47 11 -3 -2 12 -10
31 -17 20 -7 36 -16 36 -20 0 -4 -20 -19 -45 -33 -65 -38 -55 -42 16 -6 l61
31 33 -25 c38 -29 45 -31 45 -13 0 7 -14 21 -31 31 -28 17 -29 19 -12 32 10 7
24 14 31 14 7 0 10 5 7 10 -9 15 -27 12 -56 -10z"/>
<path d="M100 380 c-13 -27 -32 -57 -42 -67 -34 -30 -23 -45 28 -37 l47 7 -31
-46 c-18 -25 -37 -47 -44 -50 -9 -3 -10 -8 -3 -15 7 -8 26 -5 65 8 l55 20 -49
-7 -50 -6 35 44 c64 80 82 110 72 120 -7 7 -17 -2 -31 -25 -18 -31 -27 -36
-57 -36 l-36 0 45 64 c41 56 47 76 26 76 -4 0 -17 -22 -30 -50z"/>
<path d="M265 320 c-13 -26 -22 -30 -58 -32 l-42 -1 38 -4 c20 -2 37 -8 37
-12 0 -5 -10 -23 -23 -42 -39 -57 -42 -65 -19 -45 l22 19 0 -57 c0 -36 4 -55
10 -51 6 3 10 31 10 61 0 53 0 54 30 54 l30 0 0 -85 c0 -50 4 -85 10 -85 6 0
10 35 10 85 l0 85 36 0 35 0 -3 -47 c-3 -45 -5 -48 -28 -45 l-25 3 23 -17 c33
-23 49 -4 54 68 l5 57 -50 -6 c-47 -6 -49 -5 -45 17 1 13 -3 25 -9 27 -8 3
-13 -5 -13 -21 0 -22 -4 -26 -30 -26 -34 0 -34 0 -18 35 11 24 14 25 102 25
85 0 89 1 73 17 -13 13 -19 15 -29 5 -14 -14 -118 -16 -118 -3 0 5 7 16 15 24
13 14 11 27 -6 27 -5 0 -15 -13 -24 -30z"/>
<path d="M102 117 c-47 -13 -69 -24 -63 -30 6 -6 36 0 85 18 72 26 91 37 64
34 -7 -1 -46 -11 -86 -22z"/>
</g>
</svg>
