<?xml version="1.0" encoding="UTF-8" standalone="no"?>
<!DOCTYPE svg PUBLIC "-//W3C//DTD SVG 20010904//EN"
 "http://www.w3.org/TR/2001/REC-SVG-20010904/DTD/svg10.dtd">
<svg version="1.0" xmlns="http://www.w3.org/2000/svg"
 width="40.000000pt" height="40.000000pt" viewBox="0 0 40.000000 40.000000"
 preserveAspectRatio="xMidYMid meet">
<metadata>
Created by POTRACE 1.0.0, written by Peter Selinger 2001-2017
</metadata>
<g transform="translate(0.000000,40.000000) scale(0.100000,-0.100000)"
>
<path d="M224 369 c9 -13 16 -27 16 -32 0 -5 -34 -7 -75 -5 l-75 3 0 -66 0
-66 -40 -27 c-23 -15 -38 -31 -34 -37 4 -7 18 0 35 17 16 15 31 26 33 23 11
-11 -17 -106 -41 -138 -27 -35 -27 -36 -3 -20 48 32 69 100 70 232 l0 67 147
0 c141 0 146 1 129 18 -13 12 -20 14 -23 5 -3 -8 -23 -13 -53 -13 -38 0 -49 4
-53 19 -2 10 -15 24 -27 31 -22 12 -22 12 -6 -11z"/>
<path d="M210 271 c0 -37 -3 -41 -32 -50 l-33 -10 30 2 c26 2 30 -1 30 -23 0
-21 -4 -25 -25 -23 l-25 3 23 -18 c33 -25 21 -62 -36 -112 -24 -22 -40 -40
-35 -40 22 0 90 59 103 89 13 32 24 39 35 21 7 -12 35 -13 35 -2 0 5 -11 15
-25 22 -20 11 -25 21 -25 52 0 37 1 38 35 38 34 0 36 -2 34 -32 -6 -89 1 -129
27 -153 15 -14 37 -25 48 -25 19 0 21 5 18 42 l-4 41 -14 -33 c-14 -32 -15
-32 -34 -15 -17 15 -20 31 -20 97 0 56 4 78 13 78 9 0 9 2 -1 9 -8 5 -34 6
-58 3 -42 -4 -44 -3 -44 21 0 14 8 31 18 36 9 6 12 11 5 11 -6 0 -18 3 -27 6
-13 5 -16 -2 -16 -35z"/>
<path d="M22 295 c2 -5 10 -25 17 -42 14 -36 31 -44 31 -15 0 10 -12 29 -26
43 -15 13 -25 20 -22 14z"/>
<path d="M140 175 c0 -3 2 -5 5 -5 3 0 5 2 5 5 0 3 -2 5 -5 5 -3 0 -5 -2 -5
-5z"/>
</g>
</svg>
