<?xml version="1.0" encoding="UTF-8" standalone="no"?>
<!DOCTYPE svg PUBLIC "-//W3C//DTD SVG 20010904//EN"
 "http://www.w3.org/TR/2001/REC-SVG-20010904/DTD/svg10.dtd">
<svg version="1.0" xmlns="http://www.w3.org/2000/svg"
 width="39.000000pt" height="40.000000pt" viewBox="0 0 39.000000 40.000000"
 preserveAspectRatio="xMidYMid meet">
<metadata>
Created by POTRACE 1.0.0, written by Peter Selinger 2001-2017
</metadata>
<g transform="translate(0.000000,40.000000) scale(0.100000,-0.100000)"
>
<path d="M65 343 c-4 -21 -17 -65 -31 -98 -14 -36 -17 -51 -7 -37 23 33 53 29
53 -8 0 -28 -3 -30 -37 -30 -20 0 -33 -3 -29 -7 4 -5 20 -8 34 -8 24 0 27 -4
27 -40 0 -22 -3 -50 -7 -62 -13 -40 9 -34 48 14 l39 48 -32 -23 -33 -23 0 45
0 46 36 0 c20 0 33 4 29 10 -3 5 -19 7 -35 3 -28 -5 -30 -4 -30 26 0 28 3 31
29 31 32 0 48 14 30 25 -6 4 -16 2 -22 -4 -10 -10 -77 -16 -77 -6 0 2 5 16 12
30 9 21 18 25 55 25 42 0 57 12 28 24 -8 3 -15 1 -15 -4 0 -6 -11 -10 -25 -10
-28 0 -33 20 -10 43 15 15 10 27 -11 27 -6 0 -15 -17 -19 -37z"/>
<path d="M290 349 c-30 -11 -64 -18 -75 -15 -19 5 -20 -1 -23 -107 -3 -110
-22 -183 -51 -201 -6 -4 -11 -12 -11 -18 0 -20 43 26 61 67 10 22 19 63 19 93
l0 52 46 0 46 0 -4 -110 c-2 -86 0 -110 10 -110 10 0 13 24 11 108 l-3 107 37
3 c24 2 37 8 37 18 0 16 -26 19 -35 4 -7 -12 -132 -13 -139 -2 -3 5 -3 25 0
44 6 33 9 35 63 46 32 7 68 12 80 12 20 0 21 2 11 15 -15 18 -12 18 -80 -6z"/>
</g>
</svg>
