<?xml version="1.0" encoding="UTF-8" standalone="no"?>
<!DOCTYPE svg PUBLIC "-//W3C//DTD SVG 20010904//EN"
 "http://www.w3.org/TR/2001/REC-SVG-20010904/DTD/svg10.dtd">
<svg version="1.0" xmlns="http://www.w3.org/2000/svg"
 width="46.000000pt" height="47.000000pt" viewBox="0 0 46.000000 47.000000"
 preserveAspectRatio="xMidYMid meet">
<metadata>
Created by POTRACE 1.0.0, written by Peter Selinger 2001-2017
</metadata>
<g transform="translate(0.000000,47.000000) scale(0.100000,-0.100000)"
>
<path d="M190 390 l0 -30 -72 -2 -73 -2 73 -5 74 -6 -24 -35 c-13 -19 -46 -48
-73 -63 -28 -15 -39 -25 -25 -22 55 15 109 55 121 90 10 26 19 35 36 35 19 0
23 -5 23 -30 0 -24 -7 -34 -37 -50 -36 -20 -35 -21 14 -6 12 4 24 2 28 -4 7
-11 147 -14 158 -3 4 3 3 11 -2 17 -5 6 -11 20 -14 31 -4 16 -5 14 -6 -6 0
-15 -8 -30 -17 -33 -25 -9 -92 -7 -99 4 -7 11 45 40 72 40 13 0 14 3 5 12 -9
9 -20 8 -47 -5 l-35 -17 0 25 c0 24 2 25 75 25 41 0 75 4 75 9 0 16 -21 24
-33 12 -6 -6 -47 -11 -95 -11 -84 0 -84 0 -78 24 4 16 1 26 -9 30 -11 4 -15
-2 -15 -24z"/>
<path d="M308 388 c12 -12 25 -18 29 -14 4 4 -1 14 -11 22 -31 22 -43 17 -18
-8z"/>
<path d="M240 214 c0 -25 -2 -26 -55 -22 l-55 3 0 -44 c0 -37 2 -42 14 -32 8
7 32 11 53 9 33 -3 38 -7 41 -30 l3 -28 -70 -1 c-94 -2 -94 -2 -99 -18 -3 -10
0 -12 12 -8 9 4 77 10 151 13 122 6 137 5 155 -11 18 -16 20 -16 20 -2 0 9
-18 28 -40 42 -47 30 -61 33 -29 5 l24 -19 -51 -1 c-59 0 -63 2 -56 35 4 21
10 25 41 25 20 0 42 -5 49 -12 7 -7 12 -10 13 -7 0 2 2 15 3 29 2 14 5 32 7
40 3 12 -7 14 -53 11 -57 -3 -58 -2 -58 23 0 14 -4 26 -10 26 -5 0 -10 -12
-10 -26z m0 -54 c0 -17 -7 -20 -45 -20 -38 0 -45 3 -45 20 0 17 7 20 45 20 38
0 45 -3 45 -20z m110 0 c0 -17 -7 -20 -44 -20 -35 0 -45 4 -49 20 -5 18 0 20
44 20 42 0 49 -3 49 -20z"/>
</g>
</svg>
