<?xml version="1.0" encoding="UTF-8" standalone="no"?>
<!DOCTYPE svg PUBLIC "-//W3C//DTD SVG 20010904//EN"
 "http://www.w3.org/TR/2001/REC-SVG-20010904/DTD/svg10.dtd">
<svg version="1.0" xmlns="http://www.w3.org/2000/svg"
 width="38.000000pt" height="43.000000pt" viewBox="0 0 38.000000 43.000000"
 preserveAspectRatio="xMidYMid meet">
<metadata>
Created by POTRACE 1.0.0, written by Peter Selinger 2001-2017
</metadata>
<g transform="translate(0.000000,43.000000) scale(0.100000,-0.100000)"
>
<path d="M256 384 c-5 -20 -12 -25 -26 -21 -19 5 -20 -1 -21 -79 -1 -46 -2
-89 -3 -96 -1 -8 18 -11 62 -9 l62 2 0 -34 c0 -19 -3 -49 -6 -66 -6 -27 -11
-31 -43 -32 -23 -1 -28 -3 -13 -6 12 -2 22 -9 22 -14 0 -14 17 -11 34 7 11 10
16 34 16 74 0 32 5 62 10 65 8 5 7 11 -1 21 -8 10 -15 11 -25 4 -7 -6 -32 -10
-56 -8 l-43 3 -3 54 c-5 87 1 101 48 101 l40 0 0 -50 c0 -48 -1 -50 -27 -50
l-27 0 23 -17 c23 -15 25 -15 37 2 8 10 15 38 16 62 0 24 1 49 2 56 1 8 -11
11 -36 9 -31 -3 -37 -1 -32 12 3 9 10 16 16 16 5 0 6 5 3 10 -11 17 -23 11
-29 -16z"/>
<path d="M80 390 c0 -6 -14 -41 -32 -78 -43 -90 -42 -89 -30 -77 6 6 36 8 66
7 54 -4 56 -5 56 -32 0 -28 -2 -29 -57 -33 l-58 -3 58 -2 57 -2 0 -35 0 -35
-60 0 c-33 0 -60 -4 -60 -9 0 -5 27 -7 60 -4 41 4 60 2 60 -6 0 -6 5 -11 10
-11 6 0 10 35 10 85 0 56 4 85 11 85 8 0 8 4 -1 15 -9 11 -16 12 -30 2 -11 -6
-22 -8 -26 -5 -6 7 31 67 50 80 16 11 -9 32 -26 22 -33 -21 -59 -6 -34 19 8 8
12 17 9 21 -10 10 -33 7 -33 -4z m50 -67 c0 -14 -40 -73 -49 -73 -5 0 -16 3
-25 6 -13 5 -13 9 1 40 13 27 23 34 45 34 15 0 28 -3 28 -7z"/>
<path d="M250 313 c0 -5 7 -18 15 -29 12 -16 14 -16 15 -3 0 9 -7 22 -15 29
-8 7 -15 8 -15 3z"/>
<path d="M225 131 c-33 -3 -55 -8 -50 -11 17 -9 146 1 139 11 -3 5 -11 8 -17
7 -7 -1 -39 -4 -72 -7z"/>
</g>
</svg>
