<?xml version="1.0" encoding="UTF-8" standalone="no"?>
<!DOCTYPE svg PUBLIC "-//W3C//DTD SVG 20010904//EN"
 "http://www.w3.org/TR/2001/REC-SVG-20010904/DTD/svg10.dtd">
<svg version="1.0" xmlns="http://www.w3.org/2000/svg"
 width="39.000000pt" height="40.000000pt" viewBox="0 0 39.000000 40.000000"
 preserveAspectRatio="xMidYMid meet">
<metadata>
Created by POTRACE 1.0.0, written by Peter Selinger 2001-2017
</metadata>
<g transform="translate(0.000000,40.000000) scale(0.100000,-0.100000)"
>
<path d="M216 355 l16 -25 -70 0 c-39 0 -74 5 -77 10 -15 25 -20 2 -22 -111
-2 -105 -6 -129 -28 -178 l-25 -56 25 28 c34 38 45 87 45 199 l0 97 151 0 c84
0 154 3 157 6 3 3 0 11 -6 17 -10 10 -17 10 -32 0 -23 -14 -114 -17 -105 -3 6
10 -21 41 -36 41 -5 0 -2 -11 7 -25z"/>
<path d="M224 295 c4 -12 -7 -15 -66 -15 -40 0 -68 -3 -62 -7 5 -5 72 -6 149
-2 77 3 136 7 130 8 -5 2 -35 2 -66 1 -43 -1 -58 2 -62 14 -4 9 -11 16 -18 16
-6 0 -9 -7 -5 -15z"/>
<path d="M137 229 c-23 -42 -17 -45 15 -9 23 26 26 40 9 40 -3 0 -14 -14 -24
-31z"/>
<path d="M239 228 c-16 -37 -15 -228 2 -228 5 0 9 7 9 15 0 12 14 15 65 15 39
0 65 4 65 10 0 7 -13 8 -35 4 -33 -6 -35 -5 -35 20 0 22 4 26 31 26 18 0 28 4
24 10 -3 6 -17 7 -31 4 -20 -5 -24 -2 -24 15 0 12 5 21 11 21 8 0 8 4 1 13 -6
7 -9 29 -6 48 4 24 1 39 -8 47 -12 10 -14 4 -10 -42 4 -47 2 -55 -14 -59 -17
-4 -17 -5 -1 -6 10 -1 17 -9 17 -21 0 -15 -7 -20 -25 -20 -23 0 -25 3 -25 50
0 45 2 50 23 51 22 1 22 1 -2 8 -22 6 -23 8 -8 23 9 8 13 18 10 22 -12 12 -19
6 -34 -26z m61 -163 c0 -20 -5 -25 -25 -25 -20 0 -25 5 -25 25 0 20 5 25 25
25 20 0 25 -5 25 -25z"/>
<path d="M345 210 c-3 -5 3 -10 15 -10 12 0 18 5 15 10 -3 6 -10 10 -15 10 -5
0 -12 -4 -15 -10z"/>
<path d="M173 194 c-4 -10 -16 -14 -37 -12 -17 2 -31 -1 -31 -7 0 -5 10 -9 23
-7 31 4 28 -13 -8 -40 -37 -27 -27 -40 23 -29 50 12 48 -2 -8 -56 -25 -24 -42
-43 -37 -43 11 0 54 31 70 50 20 25 50 89 44 94 -10 11 -22 6 -22 -9 0 -8 -3
-15 -7 -16 -5 0 -19 -2 -32 -5 -21 -4 -22 -2 -10 13 7 10 26 33 43 51 24 25
26 32 13 32 -10 0 -20 -7 -24 -16z"/>
<path d="M204 168 c-4 -7 -3 -8 4 -4 12 7 16 16 8 16 -3 0 -8 -5 -12 -12z"/>
<path d="M345 159 c-9 -14 -2 -20 14 -10 8 6 9 11 3 15 -6 3 -14 1 -17 -5z"/>
</g>
</svg>
