<?xml version="1.0" encoding="UTF-8" standalone="no"?>
<!DOCTYPE svg PUBLIC "-//W3C//DTD SVG 20010904//EN"
 "http://www.w3.org/TR/2001/REC-SVG-20010904/DTD/svg10.dtd">
<svg version="1.0" xmlns="http://www.w3.org/2000/svg"
 width="49.000000pt" height="56.000000pt" viewBox="0 0 49.000000 56.000000"
 preserveAspectRatio="xMidYMid meet">
<metadata>
Created by POTRACE 1.0.0, written by Peter Selinger 2001-2017
</metadata>
<g transform="translate(0.000000,56.000000) scale(0.100000,-0.100000)"
>
<path d="M86 423 c-3 -4 -6 -13 -6 -20 0 -8 -16 -49 -35 -91 -22 -49 -28 -69
-16 -54 28 32 51 29 51 -7 0 -26 -4 -30 -32 -34 l-33 -4 33 -1 34 -2 -4 -67
c-2 -39 1 -67 7 -69 6 -1 28 19 50 44 l40 46 -37 -28 -38 -28 0 51 0 51 35 0
c36 0 47 13 20 24 -8 3 -15 1 -15 -4 0 -6 -9 -10 -20 -10 -16 0 -20 7 -20 30
0 28 3 30 35 30 34 0 46 12 24 26 -6 3 -16 1 -22 -5 -14 -14 -77 -14 -77 0 0
34 22 49 71 49 31 0 48 4 44 10 -4 6 -23 7 -46 4 -42 -7 -47 0 -24 33 12 18
13 22 1 26 -8 3 -17 3 -20 0z"/>
<path d="M280 410 l-75 -6 69 -2 c61 -2 67 -4 55 -18 -12 -15 -22 -15 -64 2
-16 6 -15 3 5 -14 l25 -21 -55 -2 c-52 -2 -53 -2 -15 -8 l39 -6 -44 -38 c-49
-42 -40 -40 28 5 l42 29 0 -27 c0 -22 -3 -25 -22 -21 -22 6 -22 6 -3 -9 28
-21 40 -13 43 29 3 34 6 37 33 37 26 0 28 -2 20 -19 -10 -17 -9 -17 23 -2 46
22 30 40 -31 33 -54 -6 -52 11 4 34 31 13 38 36 10 32 -7 -1 -46 -4 -87 -8z"/>
<path d="M198 157 c-2 -55 0 -101 5 -104 4 -2 7 39 7 91 l0 96 85 0 85 0 0
-49 c0 -27 -3 -63 -6 -80 -6 -26 -11 -31 -38 -32 -21 -1 -24 -3 -11 -6 11 -3
24 -9 29 -13 5 -5 15 -6 22 -3 10 4 14 27 14 87 0 50 5 87 12 94 14 14 19 13
-104 15 l-97 2 -3 -98z"/>
<path d="M242 200 c-13 -16 -19 -30 -14 -30 4 0 21 14 37 30 20 21 24 30 14
30 -8 0 -25 -13 -37 -30z"/>
<path d="M329 206 c14 -14 29 -26 34 -26 13 0 -12 29 -37 42 -19 10 -18 8 3
-16z"/>
<path d="M250 139 c0 -35 0 -35 43 -33 40 2 42 3 45 36 l3 35 -45 -1 c-46 -1
-46 -1 -46 -37z m70 1 c0 -15 -7 -20 -25 -20 -18 0 -25 5 -25 20 0 15 7 20 25
20 18 0 25 -5 25 -20z"/>
</g>
</svg>
