<?xml version="1.0" encoding="UTF-8" standalone="no"?>
<!DOCTYPE svg PUBLIC "-//W3C//DTD SVG 20010904//EN"
 "http://www.w3.org/TR/2001/REC-SVG-20010904/DTD/svg10.dtd">
<svg version="1.0" xmlns="http://www.w3.org/2000/svg"
 width="43.000000pt" height="40.000000pt" viewBox="0 0 43.000000 40.000000"
 preserveAspectRatio="xMidYMid meet">
<metadata>
Created by POTRACE 1.0.0, written by Peter Selinger 2001-2017
</metadata>
<g transform="translate(0.000000,40.000000) scale(0.100000,-0.100000)"
>
<path d="M85 377 c-2 -6 -9 -30 -16 -52 -6 -22 -23 -62 -36 -88 -13 -27 -22
-51 -19 -54 3 -3 11 6 17 21 17 37 49 35 49 -3 0 -26 -4 -30 -32 -34 l-33 -4
33 -1 34 -2 -3 -70 c-2 -38 -1 -71 1 -72 3 -2 23 17 45 41 37 42 33 48 -7 13
-17 -14 -18 -12 -18 36 0 51 1 52 30 52 17 0 30 4 30 9 0 15 -18 23 -25 11
-14 -22 -35 -10 -35 20 0 27 3 30 30 30 30 0 40 13 19 26 -6 3 -16 1 -22 -5
-14 -14 -67 -14 -67 0 0 31 22 49 60 49 22 0 40 4 40 9 0 18 -19 22 -39 9 -29
-18 -38 -2 -19 32 14 24 14 29 2 34 -8 3 -16 0 -19 -7z"/>
<path d="M383 359 c-7 -7 -44 -10 -96 -8 l-85 4 -4 -125 c-3 -114 -6 -131 -31
-179 -17 -34 -22 -49 -12 -41 31 25 55 89 61 159 5 52 11 71 21 71 11 0 14
-12 12 -47 -4 -51 0 -54 44 -35 34 14 35 21 2 14 -23 -4 -25 -1 -25 32 0 25 4
36 15 36 8 0 15 -5 15 -11 0 -7 16 -27 36 -45 23 -22 30 -34 20 -34 -9 0 -16
-8 -16 -20 0 -16 -8 -20 -62 -23 l-63 -3 63 -2 62 -2 0 -40 c0 -38 -1 -40 -32
-41 l-33 -1 30 -9 c45 -13 55 -5 55 46 l0 45 36 0 c31 0 35 2 24 15 -9 11 -16
12 -30 2 -11 -6 -22 -8 -26 -5 -13 14 5 35 38 43 l33 7 -33 8 c-49 11 -61 27
-28 36 19 4 24 10 17 17 -7 7 -17 5 -31 -8 -16 -14 -22 -15 -35 -5 -27 23 -16
30 47 30 34 0 58 3 54 7 -4 5 -52 6 -107 4 l-99 -3 0 46 0 45 102 3 c81 2 98
5 86 15 -10 9 -18 9 -25 2z"/>
<path d="M295 301 c-38 -3 -65 -8 -60 -11 17 -9 166 1 160 11 -4 5 -12 8 -18
7 -7 -1 -43 -4 -82 -7z"/>
<path d="M250 83 c0 -17 27 -46 33 -36 4 6 -2 18 -13 28 -11 10 -20 14 -20 8z"/>
</g>
</svg>
