<?xml version="1.0" encoding="UTF-8" standalone="no"?>
<!DOCTYPE svg PUBLIC "-//W3C//DTD SVG 20010904//EN"
 "http://www.w3.org/TR/2001/REC-SVG-20010904/DTD/svg10.dtd">
<svg version="1.0" xmlns="http://www.w3.org/2000/svg"
 width="511.000000pt" height="511.000000pt" viewBox="0 0 511.000000 511.000000"
 preserveAspectRatio="xMidYMid meet">
<metadata>
Created by POTRACE 1.0.0, written by Peter Selinger 2001-2017
</metadata>
<g transform="translate(0.000000,511.000000) scale(0.100000,-0.100000)"
>
<path d="M861 4983 c-64 -239 -223 -696 -332 -958 -49 -116 -183 -391 -236
-484 -63 -111 -162 -273 -216 -354 -32 -49 -61 -95 -63 -102 -3 -7 8 -22 24
-33 l29 -21 189 210 189 210 3 -763 c2 -421 -2 -910 -8 -1092 -6 -181 -9 -330
-7 -333 3 -2 63 28 136 67 l131 72 0 94 0 94 540 0 539 0 3 -104 3 -103 138
75 c133 72 139 76 132 101 -4 14 -9 424 -11 911 l-4 885 70 59 c39 32 70 62
70 65 0 6 -276 244 -289 249 -4 1 -35 -36 -70 -83 l-63 -85 -239 0 c-131 0
-239 2 -239 5 0 3 30 49 68 103 37 54 85 124 107 155 117 169 279 379 326 421
30 27 80 61 112 76 l57 28 -147 129 c-82 71 -153 132 -159 136 -7 4 -36 -30
-74 -88 l-63 -95 -273 0 -274 0 15 35 c28 69 128 241 180 311 29 39 67 77 85
86 l31 15 -153 95 c-84 52 -169 104 -188 115 l-35 21 -34 -125z m616 -715
c-21 -57 -302 -686 -309 -695 -7 -8 -74 -12 -232 -13 l-223 -1 -64 52 c-35 28
-65 52 -67 54 -2 2 52 104 121 226 68 123 143 261 168 306 l44 83 284 0 c222
0 282 -3 278 -12z m-377 -1228 l0 -370 -197 2 -198 3 -3 368 -2 367 200 0 200
0 0 -370z m680 0 l0 -370 -210 0 -210 0 0 370 0 370 210 0 210 0 0 -370z
m-682 -902 l-3 -393 -195 0 -195 0 -3 380 c-1 209 0 386 3 392 3 10 52 13 200
13 l195 0 -2 -392z m677 -3 l0 -390 -207 -3 -208 -2 0 395 0 395 208 -2 207
-3 0 -390z"/>
<path d="M4226 5008 c-71 -183 -241 -504 -428 -810 l-91 -148 -796 0 -796 0
96 -95 95 -96 94 17 c70 12 178 18 408 21 l312 5 -2 -348 -3 -349 -220 -2
-220 -3 -135 74 c-74 41 -136 73 -137 72 -2 -1 2 -342 9 -757 9 -574 9 -971 0
-1663 -7 -500 -11 -910 -10 -912 2 -1 67 30 146 69 l142 71 0 138 0 138 910 0
910 0 2 -159 3 -158 145 62 145 62 -3 49 c-1 27 -7 105 -13 174 -8 80 -13 557
-15 1330 l-4 1205 80 59 c45 32 80 62 78 67 -4 11 -301 269 -309 269 -4 0 -35
-37 -69 -82 -35 -46 -70 -89 -78 -96 -12 -9 -73 -12 -229 -12 l-213 0 0 350 0
350 535 2 535 3 -168 168 -168 168 -104 -95 -105 -95 -348 -1 -349 0 109 114
c59 62 188 205 286 317 l178 205 100 38 c54 22 99 42 99 47 0 8 -345 298 -364
305 -7 3 -22 -22 -40 -68z m-456 -1458 l0 -350 -200 0 -200 0 0 350 0 350 200
0 200 0 0 -350z m-654 -667 c-23 -548 -132 -939 -353 -1271 -31 -45 -60 -85
-64 -88 -5 -3 -9 336 -9 760 l0 766 216 0 217 0 -7 -167z m656 -390 c4 -623 2
-608 75 -693 66 -77 80 -80 391 -80 l272 0 0 -200 0 -200 -910 0 -910 0 0 90
c0 51 4 90 10 90 5 0 26 -8 46 -17 l37 -18 70 75 c330 352 493 780 514 1343
l6 167 198 0 198 0 3 -557z m738 43 l0 -515 -54 -6 c-29 -4 -117 -5 -194 -3
-164 4 -185 13 -215 94 -22 58 -23 92 -19 587 l2 357 240 0 240 0 0 -514z m0
-1661 l0 -295 -910 0 -910 0 0 295 0 295 910 0 910 0 0 -295z"/>
<path d="M2588 4959 c-21 -11 -38 -22 -38 -25 0 -3 28 -38 63 -77 185 -213
324 -426 367 -562 47 -153 134 -183 228 -81 52 57 76 122 69 186 -11 94 -62
162 -210 281 -92 75 -421 300 -436 299 -3 -1 -23 -10 -43 -21z"/>
<path d="M1995 1074 c-593 -150 -1190 -256 -1812 -321 l-72 -8 70 -125 c39
-69 81 -144 95 -167 l24 -42 133 64 c161 77 304 127 553 195 289 79 1251 364
1261 374 7 7 -22 86 -31 84 -6 0 -105 -25 -221 -54z"/>
</g>
</svg>
