<?xml version="1.0" encoding="UTF-8" standalone="no"?>
<!DOCTYPE svg PUBLIC "-//W3C//DTD SVG 20010904//EN"
 "http://www.w3.org/TR/2001/REC-SVG-20010904/DTD/svg10.dtd">
<svg version="1.0" xmlns="http://www.w3.org/2000/svg"
 width="25.000000pt" height="31.000000pt" viewBox="0 0 25.000000 31.000000"
 preserveAspectRatio="xMidYMid meet">
<metadata>
Created by POTRACE 1.0.0, written by Peter Selinger 2001-2017
</metadata>
<g transform="translate(0.000000,31.000000) scale(0.100000,-0.100000)"
>
<path d="M120 290 c-14 -4 -42 -8 -63 -9 -37 -1 -38 -1 -23 -23 9 -12 16 -31
16 -41 0 -13 5 -17 15 -13 8 3 37 8 65 12 31 4 50 11 50 20 0 7 8 18 18 23 16
10 16 12 -2 26 -21 16 -37 17 -76 5z m40 -24 c0 -7 -6 -18 -12 -23 -18 -14
-78 -24 -78 -14 0 5 -3 16 -6 24 -4 12 3 17 28 20 63 7 68 7 68 -7z"/>
<path d="M105 195 c-36 -7 -49 -13 -32 -14 15 0 27 -5 27 -9 0 -21 -30 -45
-58 -46 -31 -1 -31 -2 -26 -41 11 -86 11 -85 46 -74 44 12 128 12 128 -1 0
-16 27 -11 34 6 3 9 6 29 6 45 0 17 5 39 10 49 16 29 -18 43 -72 30 -24 -5
-52 -10 -62 -10 -17 0 -16 4 9 30 21 22 38 30 62 30 18 0 33 5 33 10 0 13 -29
11 -105 -5z m105 -102 c0 -46 -8 -58 -38 -59 -21 -1 -22 3 -20 48 3 45 5 48
31 48 25 0 27 -3 27 -37z m-132 -29 c-2 -27 -8 -39 -18 -39 -20 0 -27 74 -8
86 20 13 30 -5 26 -47z m62 11 c0 -38 -3 -45 -20 -45 -25 0 -25 8 -2 27 16 14
16 14 0 9 -12 -3 -18 0 -18 9 0 8 8 15 18 16 13 0 12 2 -5 9 -30 12 -29 20 2
20 23 0 25 -4 25 -45z"/>
</g>
</svg>
