<?xml version="1.0" encoding="UTF-8" standalone="no"?>
<!DOCTYPE svg PUBLIC "-//W3C//DTD SVG 20010904//EN"
 "http://www.w3.org/TR/2001/REC-SVG-20010904/DTD/svg10.dtd">
<svg version="1.0" xmlns="http://www.w3.org/2000/svg"
 width="39.000000pt" height="39.000000pt" viewBox="0 0 39.000000 39.000000"
 preserveAspectRatio="xMidYMid meet">
<metadata>
Created by POTRACE 1.0.0, written by Peter Selinger 2001-2017
</metadata>
<g transform="translate(0.000000,39.000000) scale(0.100000,-0.100000)"
>
<path d="M256 354 c-6 -22 -11 -25 -31 -20 -21 5 -25 3 -25 -15 0 -16 -3 -19
-13 -11 -8 7 -18 7 -27 2 -27 -17 -98 -12 -109 8 -10 16 -10 15 -11 -3 0 -11
-7 -30 -15 -42 -10 -14 -12 -24 -5 -28 15 -9 30 4 30 26 0 16 7 19 51 19 51 0
51 0 44 -27 l-7 -28 24 23 c14 12 28 22 32 22 4 0 6 -33 4 -72 l-3 -73 83 4
82 3 0 -45 c0 -66 -7 -77 -49 -77 -27 0 -32 -3 -21 -10 8 -5 30 -10 47 -10 37
0 38 3 47 106 l5 60 -84 -4 -85 -5 0 77 0 76 55 0 55 0 0 -50 c0 -50 0 -50
-32 -50 l-33 -1 28 -15 c36 -20 57 -5 57 42 0 18 5 45 10 60 6 15 8 29 5 32
-3 3 -26 5 -52 3 -46 -2 -47 -2 -30 17 16 18 16 20 2 26 -23 8 -22 9 -29 -20z"/>
<path d="M95 340 c16 -31 35 -40 35 -17 0 14 -31 47 -44 47 -3 0 0 -13 9 -30z"/>
<path d="M260 265 c25 -27 40 -32 40 -14 0 15 -30 38 -49 39 -10 0 -7 -8 9
-25z"/>
<path d="M78 229 c-11 -38 -14 -41 -45 -37 -20 3 -32 0 -30 -6 2 -6 16 -9 32
-8 23 3 27 1 21 -13 -19 -50 -17 -61 8 -73 35 -16 33 -25 -16 -61 -23 -17 -35
-31 -26 -31 15 0 65 34 81 55 4 6 16 0 32 -17 25 -29 45 -36 45 -18 0 6 -12
22 -26 35 l-26 24 17 43 c9 24 21 48 26 54 6 7 4 16 -5 23 -10 8 -16 9 -21 1
-7 -12 -55 -14 -55 -2 0 5 7 17 15 28 18 24 18 31 0 38 -10 4 -18 -6 -27 -35z
m62 -54 c0 -2 -7 -23 -16 -45 -15 -36 -18 -39 -38 -28 -11 6 -22 12 -24 13 -1
1 3 16 9 33 9 26 16 32 40 32 16 0 29 -2 29 -5z"/>
<path d="M315 110 c-3 -5 -35 -10 -71 -10 -36 0 -64 -4 -64 -10 0 -12 157 -14
164 -1 3 5 -1 14 -8 20 -10 8 -16 9 -21 1z"/>
</g>
</svg>
