<?xml version="1.0" encoding="UTF-8" standalone="no"?>
<!DOCTYPE svg PUBLIC "-//W3C//DTD SVG 20010904//EN"
 "http://www.w3.org/TR/2001/REC-SVG-20010904/DTD/svg10.dtd">
<svg version="1.0" xmlns="http://www.w3.org/2000/svg"
 width="41.000000pt" height="46.000000pt" viewBox="0 0 41.000000 46.000000"
 preserveAspectRatio="xMidYMid meet">
<metadata>
Created by POTRACE 1.0.0, written by Peter Selinger 2001-2017
</metadata>
<g transform="translate(0.000000,46.000000) scale(0.100000,-0.100000)"
>
<path d="M250 404 c0 -24 -3 -26 -40 -22 l-40 4 0 -44 c0 -26 4 -41 10 -37 6
3 10 19 10 36 0 26 3 29 30 29 29 0 30 -1 30 -51 l0 -51 -60 4 c-33 1 -60 0
-60 -4 0 -5 61 -8 135 -8 124 0 155 6 124 26 -6 3 -16 1 -22 -5 -6 -6 -30 -11
-54 -11 l-43 0 0 50 0 50 35 0 c32 0 35 -2 35 -30 0 -16 5 -30 10 -30 9 0 14
48 8 68 -2 4 -23 5 -47 3 -43 -3 -44 -2 -37 23 5 19 3 26 -9 26 -10 0 -15 -9
-15 -26z"/>
<path d="M105 393 c-3 -15 -24 -62 -46 -105 -46 -92 -50 -108 -13 -53 15 22
30 43 33 47 4 4 5 -48 3 -117 -3 -82 -1 -125 6 -125 7 0 12 56 14 154 3 141 5
157 25 184 22 29 21 42 -3 42 -6 0 -15 -12 -19 -27z"/>
<path d="M170 173 c0 -36 4 -63 10 -63 6 0 10 25 10 55 l0 55 75 0 75 0 0 -55
c0 -69 19 -73 22 -5 0 28 1 55 2 61 1 8 -30 12 -96 13 l-98 1 0 -62z"/>
<path d="M257 193 c-4 -3 -7 -20 -7 -38 0 -41 -14 -58 -80 -95 -30 -17 -44
-28 -30 -24 38 10 95 41 109 58 18 22 22 21 81 -19 29 -20 55 -34 57 -32 12
13 -16 38 -63 57 -44 18 -54 27 -54 46 0 12 5 26 10 29 6 4 8 11 5 16 -7 11
-19 12 -28 2z"/>
</g>
</svg>
