<?xml version="1.0" encoding="UTF-8" standalone="no"?>
<!DOCTYPE svg PUBLIC "-//W3C//DTD SVG 20010904//EN"
 "http://www.w3.org/TR/2001/REC-SVG-20010904/DTD/svg10.dtd">
<svg version="1.0" xmlns="http://www.w3.org/2000/svg"
 width="37.000000pt" height="40.000000pt" viewBox="0 0 37.000000 40.000000"
 preserveAspectRatio="xMidYMid meet">
<metadata>
Created by POTRACE 1.0.0, written by Peter Selinger 2001-2017
</metadata>
<g transform="translate(0.000000,40.000000) scale(0.100000,-0.100000)"
>
<path d="M96 355 l16 -25 -47 0 -47 0 33 -32 34 -33 -38 -3 c-20 -2 -36 -6
-33 -10 6 -11 186 -2 186 9 0 6 -16 7 -37 4 l-38 -6 22 19 c12 11 19 22 16 26
-12 11 -20 6 -31 -19 -12 -26 -42 -34 -42 -11 0 7 -10 21 -22 29 -22 15 -19
16 55 16 51 1 76 5 72 11 -4 6 -21 8 -42 4 -24 -5 -34 -3 -29 4 3 6 -1 18 -10
26 -24 25 -36 19 -18 -9z"/>
<path d="M270 354 c-7 -17 -15 -24 -25 -20 -12 4 -15 -9 -16 -79 -1 -47 -2
-91 -3 -97 -1 -10 15 -12 57 -10 l57 4 0 -54 c0 -68 -9 -82 -49 -76 -40 6 -26
-9 16 -18 40 -8 50 10 53 96 3 83 2 86 -12 72 -7 -7 -31 -12 -55 -12 l-43 0 0
80 0 80 40 0 40 0 0 -44 c0 -47 -12 -62 -45 -58 -18 3 -18 2 3 -13 35 -26 50
-13 58 52 5 32 9 63 9 68 0 6 -17 9 -37 7 -38 -4 -53 13 -23 24 8 4 12 10 9
15 -10 16 -24 9 -34 -17z"/>
<path d="M271 277 c7 -15 16 -27 21 -27 14 0 9 16 -13 36 -21 19 -21 19 -8 -9z"/>
<path d="M40 166 c0 -50 2 -57 15 -46 8 7 35 11 65 8 l50 -3 2 38 c0 20 1 42
2 48 1 7 -24 12 -67 13 l-67 1 0 -59z m120 29 c0 -12 -13 -15 -55 -15 -51 0
-65 7 -48 23 3 4 28 7 55 7 36 0 48 -4 48 -15z m0 -40 c0 -12 -13 -15 -55 -15
-44 0 -53 3 -49 15 9 21 104 21 104 0z"/>
<path d="M103 95 c13 -27 27 -33 27 -12 0 14 -19 37 -31 37 -4 0 -2 -11 4 -25z"/>
<path d="M295 111 c-6 -6 -30 -11 -55 -14 -35 -3 -29 -4 24 -5 60 -2 67 0 56
13 -15 18 -14 17 -25 6z"/>
<path d="M31 85 c0 -12 -6 -26 -13 -33 -6 -6 -9 -15 -5 -19 13 -13 29 14 24
43 -2 18 -5 21 -6 9z"/>
<path d="M60 61 c0 -42 11 -51 58 -51 39 0 50 11 41 40 -4 15 -7 18 -8 8 -1
-21 -34 -40 -55 -32 -10 4 -16 18 -16 40 0 19 -4 34 -10 34 -5 0 -10 -18 -10
-39z"/>
<path d="M171 77 c7 -15 16 -27 21 -27 14 0 9 16 -13 36 -21 19 -21 19 -8 -9z"/>
</g>
</svg>
