<?xml version="1.0" encoding="UTF-8" standalone="no"?>
<!DOCTYPE svg PUBLIC "-//W3C//DTD SVG 20010904//EN"
 "http://www.w3.org/TR/2001/REC-SVG-20010904/DTD/svg10.dtd">
<svg version="1.0" xmlns="http://www.w3.org/2000/svg"
 width="42.000000pt" height="47.000000pt" viewBox="0 0 42.000000 47.000000"
 preserveAspectRatio="xMidYMid meet">
<metadata>
Created by POTRACE 1.0.0, written by Peter Selinger 2001-2017
</metadata>
<g transform="translate(0.000000,47.000000) scale(0.100000,-0.100000)"
>
<path d="M75 398 c-2 -7 -11 -38 -21 -68 -9 -30 -23 -68 -31 -83 -8 -16 -13
-31 -10 -33 2 -2 16 21 32 51 22 43 32 55 51 55 27 0 28 -3 13 -33 -11 -19
-10 -19 18 4 36 28 28 48 -17 41 -34 -5 -39 10 -15 44 14 21 11 34 -7 34 -5 0
-10 -6 -13 -12z"/>
<path d="M250 369 l0 -42 -40 6 c-22 3 -40 1 -40 -4 0 -5 18 -9 40 -9 36 0 40
-2 40 -25 0 -28 -25 -34 -61 -15 -18 10 -19 6 -19 -120 0 -80 4 -130 10 -130
6 0 10 23 10 50 0 49 1 50 30 50 29 0 30 -1 30 -50 0 -27 5 -50 10 -50 6 0 10
23 10 50 l0 50 35 0 c34 0 35 -1 35 -41 0 -40 -1 -41 -27 -36 -26 5 -27 4 -8
-9 43 -31 50 -17 55 111 5 121 0 149 -22 127 -7 -7 -25 -12 -40 -12 -23 0 -28
4 -28 25 0 24 3 25 61 25 44 0 59 3 56 13 -2 6 -13 10 -23 9 -91 -17 -94 -16
-94 17 0 17 5 31 10 31 6 0 10 5 10 10 0 6 -9 10 -20 10 -17 0 -20 -7 -20 -41z
m0 -134 c0 -21 -5 -25 -30 -25 -25 0 -30 4 -30 25 0 21 5 25 30 25 25 0 30 -4
30 -25z m90 0 c0 -22 -4 -25 -35 -25 -31 0 -35 3 -35 25 0 22 4 25 35 25 31 0
35 -3 35 -25z m-90 -65 c0 -27 -3 -30 -30 -30 -27 0 -30 3 -30 30 0 27 3 30
30 30 27 0 30 -3 30 -30z m90 0 c0 -28 -3 -30 -35 -30 -32 0 -35 2 -35 30 0
28 3 30 35 30 32 0 35 -2 35 -30z"/>
<path d="M325 376 c20 -30 25 -32 25 -11 0 8 -9 19 -21 25 -20 11 -20 11 -4
-14z"/>
<path d="M70 166 c0 -52 -3 -101 -6 -110 -11 -28 15 -17 51 22 43 46 46 67 4
26 l-30 -29 3 93 c2 69 0 92 -9 92 -10 0 -13 -26 -13 -94z"/>
</g>
</svg>
