<?xml version="1.0" encoding="UTF-8" standalone="no"?>
<!DOCTYPE svg PUBLIC "-//W3C//DTD SVG 20010904//EN"
 "http://www.w3.org/TR/2001/REC-SVG-20010904/DTD/svg10.dtd">
<svg version="1.0" xmlns="http://www.w3.org/2000/svg"
 width="35.000000pt" height="30.000000pt" viewBox="0 0 35.000000 30.000000"
 preserveAspectRatio="xMidYMid meet">
<metadata>
Created by POTRACE 1.0.0, written by Peter Selinger 2001-2017
</metadata>
<g transform="translate(0.000000,30.000000) scale(0.100000,-0.100000)"
>
<path d="M245 283 c-73 -15 -71 -14 -52 -24 13 -8 17 -23 17 -61 0 -48 -1 -50
-25 -46 -23 5 -25 3 -25 -36 0 -23 -9 -58 -20 -79 -11 -20 -17 -37 -12 -37 13
0 41 55 50 96 l8 39 82 9 c85 9 112 26 42 26 l-40 0 0 50 c0 43 3 50 19 50 11
0 23 5 26 10 6 10 -31 12 -70 3z m9 -45 c10 -41 7 -78 -8 -78 -10 0 -15 15
-18 50 -3 52 14 71 26 28z"/>
<path d="M113 249 c-12 -30 -12 -30 -37 -13 -29 18 -34 11 -10 -14 15 -15 14
-18 -15 -44 -33 -29 -29 -39 5 -13 50 38 45 -3 -7 -60 -50 -54 -35 -61 17 -8
l37 37 -6 -33 c-4 -19 -7 -42 -7 -52 0 -11 -7 -19 -17 -19 -16 0 -16 -1 0 -17
31 -31 42 -2 40 100 -2 81 0 94 18 113 12 13 19 30 16 38 -10 24 -21 19 -34
-15z"/>
<path d="M293 223 c-16 -34 -14 -36 15 -12 13 10 21 23 17 29 -10 16 -19 12
-32 -17z"/>
<path d="M174 204 c3 -8 6 -18 6 -20 0 -2 5 -4 10 -4 16 0 11 27 -6 34 -12 5
-15 2 -10 -10z"/>
</g>
</svg>
