<?xml version="1.0" encoding="UTF-8" standalone="no"?>
<!DOCTYPE svg PUBLIC "-//W3C//DTD SVG 20010904//EN"
 "http://www.w3.org/TR/2001/REC-SVG-20010904/DTD/svg10.dtd">
<svg version="1.0" xmlns="http://www.w3.org/2000/svg"
 width="52.000000pt" height="50.000000pt" viewBox="0 0 52.000000 50.000000"
 preserveAspectRatio="xMidYMid meet">
<metadata>
Created by POTRACE 1.0.0, written by Peter Selinger 2001-2017
</metadata>
<g transform="translate(0.000000,50.000000) scale(0.100000,-0.100000)"
>
<path d="M137 444 c-3 -3 -3 -23 0 -45 5 -34 3 -39 -15 -39 -11 0 -22 7 -26
15 -14 38 -25 9 -25 -67 1 -121 2 -117 -23 -110 -17 4 -20 2 -15 -12 4 -10 7
-20 7 -22 0 -2 7 -4 15 -4 8 0 15 -6 16 -12 0 -7 1 -35 2 -63 2 -37 6 -50 17
-50 11 0 16 15 18 62 l3 63 44 0 45 0 0 -41 c0 -36 -2 -41 -20 -36 -29 8 -26
-26 4 -42 36 -20 46 -6 46 60 0 52 2 59 20 59 27 0 26 34 -1 54 -20 13 -21 22
-17 80 4 47 2 69 -7 76 -9 8 -15 8 -20 0 -3 -5 -13 -10 -22 -10 -12 0 -14 7
-10 35 4 27 2 37 -12 45 -10 5 -21 7 -24 4z m3 -139 c0 -16 -6 -25 -15 -25 -9
0 -15 9 -15 25 0 16 6 25 15 25 9 0 15 -9 15 -25z m60 0 c0 -16 -6 -25 -15
-25 -9 0 -15 9 -15 25 0 16 6 25 15 25 9 0 15 -9 15 -25z m-65 -85 c0 -13 -6
-25 -12 -27 -9 -3 -13 6 -13 27 0 21 4 30 13 28 6 -3 12 -15 12 -28z m65 0 c0
-20 -5 -30 -15 -30 -10 0 -15 10 -15 30 0 20 5 30 15 30 10 0 15 -10 15 -30z"/>
<path d="M337 403 c-44 -2 -75 -8 -72 -13 3 -5 19 -7 35 -3 29 5 30 4 30 -32
0 -35 -2 -37 -25 -31 l-25 6 2 -97 2 -98 5 85 6 85 53 3 52 3 0 -87 c0 -114
17 -99 22 19 l3 87 -42 -6 c-46 -7 -50 -3 -33 40 8 22 16 26 50 26 25 0 39 4
35 10 -3 6 -9 9 -13 8 -4 -1 -42 -4 -85 -5z"/>
<path d="M340 243 c0 -77 -16 -118 -62 -158 -23 -19 -36 -35 -30 -35 6 0 32
19 57 43 44 42 45 45 45 104 0 34 3 68 6 77 3 9 1 16 -5 16 -6 0 -11 -19 -11
-47z"/>
<path d="M387 96 c28 -33 39 -40 42 -28 2 9 -11 28 -30 44 -50 42 -55 34 -12
-16z"/>
</g>
</svg>
