<?xml version="1.0" encoding="UTF-8" standalone="no"?>
<!DOCTYPE svg PUBLIC "-//W3C//DTD SVG 20010904//EN"
 "http://www.w3.org/TR/2001/REC-SVG-20010904/DTD/svg10.dtd">
<svg version="1.0" xmlns="http://www.w3.org/2000/svg"
 width="49.000000pt" height="52.000000pt" viewBox="0 0 49.000000 52.000000"
 preserveAspectRatio="xMidYMid meet">
<metadata>
Created by POTRACE 1.0.0, written by Peter Selinger 2001-2017
</metadata>
<g transform="translate(0.000000,52.000000) scale(0.100000,-0.100000)"
>
<path d="M69 383 c-6 -21 -25 -65 -41 -98 -21 -44 -24 -54 -9 -37 28 32 51 29
51 -7 0 -26 -4 -30 -32 -34 l-33 -4 33 -1 33 -2 -2 -67 c-1 -37 2 -68 7 -69 5
-1 27 19 49 44 l40 46 -37 -28 -38 -28 0 51 0 51 35 0 c19 0 35 4 35 9 0 15
-18 23 -25 11 -3 -5 -15 -10 -26 -10 -14 0 -19 7 -19 30 0 27 3 30 29 30 31 0
49 14 31 25 -5 3 -16 3 -22 -2 -18 -10 -40 -13 -60 -7 -14 4 -15 9 -6 30 10
21 18 24 60 24 30 0 47 4 43 10 -4 6 -23 7 -46 4 -42 -7 -47 0 -24 32 13 20
11 34 -6 34 -4 0 -13 -17 -20 -37z"/>
<path d="M375 400 c-3 -5 -48 -11 -98 -12 -59 -1 -73 -3 -39 -5 l52 -4 0 -64
0 -64 -62 -4 -63 -3 63 -2 62 -2 0 -100 c0 -60 4 -100 10 -100 6 0 10 40 10
100 l0 100 65 0 c38 0 65 4 65 10 0 16 -30 24 -43 11 -6 -6 -28 -11 -49 -11
l-38 0 0 65 0 65 56 0 c49 0 55 2 44 15 -14 17 -26 19 -35 5z"/>
</g>
</svg>
