<?xml version="1.0" encoding="UTF-8" standalone="no"?>
<!DOCTYPE svg PUBLIC "-//W3C//DTD SVG 20010904//EN"
 "http://www.w3.org/TR/2001/REC-SVG-20010904/DTD/svg10.dtd">
<svg version="1.0" xmlns="http://www.w3.org/2000/svg"
 width="33.000000pt" height="34.000000pt" viewBox="0 0 33.000000 34.000000"
 preserveAspectRatio="xMidYMid meet">
<metadata>
Created by POTRACE 1.0.0, written by Peter Selinger 2001-2017
</metadata>
<g transform="translate(0.000000,34.000000) scale(0.100000,-0.100000)"
>
<path d="M248 323 c-3 -4 -8 -20 -12 -35 -3 -16 -11 -28 -16 -28 -6 0 -10 -34
-10 -80 0 -77 1 -80 19 -70 11 5 33 10 50 10 26 0 31 -4 31 -22 0 -38 -12 -68
-26 -68 -8 0 -11 -6 -8 -15 19 -48 59 29 52 98 -3 34 -6 35 -65 22 l-33 -7 0
61 c0 59 1 61 26 61 24 0 26 -3 20 -32 -3 -18 -10 -35 -16 -38 -5 -3 -5 -11 1
-20 8 -13 10 -13 19 0 5 8 10 22 10 31 0 9 3 31 7 49 6 33 6 33 -27 27 l-32
-7 17 26 c11 17 13 30 7 36 -5 5 -12 6 -14 1z"/>
<path d="M140 294 c-12 -4 -15 -27 -16 -129 0 -69 3 -125 8 -125 4 0 8 11 8
24 0 33 25 53 45 36 12 -10 15 -10 15 2 0 8 -5 19 -12 26 -8 8 -9 18 0 36 9
19 8 25 -4 30 -8 3 -21 3 -29 0 -11 -4 -15 0 -15 16 0 19 2 20 15 10 12 -10
16 -8 24 13 23 59 12 75 -39 61z m28 -31 c-5 -25 -28 -28 -28 -4 0 12 6 21 16
21 9 0 14 -7 12 -17z m2 -98 c0 -8 -5 -15 -11 -15 -5 0 -7 -4 -4 -10 3 -5 1
-18 -4 -27 -8 -14 -10 -9 -9 25 1 28 6 42 15 42 7 0 13 -7 13 -15z"/>
<path d="M40 220 c0 -36 -6 -90 -14 -120 -8 -30 -13 -56 -11 -58 5 -6 35 67
35 87 0 11 8 25 18 30 9 6 11 11 5 11 -17 0 -17 47 0 53 10 4 10 6 0 6 -15 1
-18 37 -4 45 15 10 21 -22 21 -110 0 -71 -2 -84 -17 -84 -14 0 -14 -2 2 -20
10 -11 21 -18 23 -15 3 3 6 59 6 125 l1 120 -32 -2 -33 -2 0 -66z"/>
<path d="M240 221 c0 -5 5 -13 10 -16 6 -3 10 -2 10 4 0 5 -4 13 -10 16 -5 3
-10 2 -10 -4z"/>
<path d="M215 74 l-40 -14 40 5 c22 3 50 5 63 5 13 0 20 4 17 10 -8 13 -31 12
-80 -6z"/>
</g>
</svg>
