<?xml version="1.0" encoding="UTF-8" standalone="no"?>
<!DOCTYPE svg PUBLIC "-//W3C//DTD SVG 20010904//EN"
 "http://www.w3.org/TR/2001/REC-SVG-20010904/DTD/svg10.dtd">
<svg version="1.0" xmlns="http://www.w3.org/2000/svg"
 width="40.000000pt" height="39.000000pt" viewBox="0 0 40.000000 39.000000"
 preserveAspectRatio="xMidYMid meet">
<metadata>
Created by POTRACE 1.0.0, written by Peter Selinger 2001-2017
</metadata>
<g transform="translate(0.000000,39.000000) scale(0.100000,-0.100000)"
>
<path d="M263 358 c9 -15 17 -29 17 -32 0 -3 -26 -7 -57 -9 -32 -2 -5 -4 60
-5 68 -1 117 2 117 7 0 16 -21 24 -33 12 -18 -18 -75 -14 -73 5 0 9 -10 23
-24 32 l-25 17 18 -27z"/>
<path d="M67 326 c10 -20 24 -36 31 -36 18 0 15 25 -5 42 -37 31 -43 30 -26
-6z"/>
<path d="M210 245 l0 -40 65 0 c64 0 65 0 66 28 1 15 2 32 3 38 1 7 -24 12
-67 13 l-67 1 0 -40z m115 0 c0 -17 -8 -20 -47 -23 -46 -3 -48 -2 -48 23 0 25
2 26 48 23 39 -3 47 -6 47 -23z"/>
<path d="M74 241 c-5 -5 -22 -11 -39 -14 l-30 -4 33 -2 34 -1 -3 -100 c-2 -58
1 -99 7 -99 5 1 25 20 44 42 33 39 27 43 -12 9 -17 -14 -18 -10 -18 66 0 50 4
82 11 84 7 2 6 8 -3 16 -9 7 -18 8 -24 3z"/>
<path d="M180 93 c0 -51 4 -93 8 -93 4 0 8 37 7 82 l0 83 83 3 82 3 0 -75 0
-75 -32 -3 -33 -4 38 -8 c21 -5 40 -7 42 -5 2 2 5 44 6 93 l3 89 -102 1 -102
1 0 -92z"/>
<path d="M239 135 c-7 0 -5 -86 2 -91 5 -3 9 0 9 7 0 8 11 10 35 6 34 -6 35
-5 35 29 0 19 0 37 0 40 0 5 -35 9 -81 9z m61 -40 c0 -20 -5 -25 -25 -25 -20
0 -25 5 -25 25 0 20 5 25 25 25 20 0 25 -5 25 -25z"/>
</g>
</svg>
