<?xml version="1.0" encoding="UTF-8" standalone="no"?>
<!DOCTYPE svg PUBLIC "-//W3C//DTD SVG 20010904//EN"
 "http://www.w3.org/TR/2001/REC-SVG-20010904/DTD/svg10.dtd">
<svg version="1.0" xmlns="http://www.w3.org/2000/svg"
 width="37.000000pt" height="34.000000pt" viewBox="0 0 37.000000 34.000000"
 preserveAspectRatio="xMidYMid meet">
<metadata>
Created by POTRACE 1.0.0, written by Peter Selinger 2001-2017
</metadata>
<g transform="translate(0.000000,34.000000) scale(0.100000,-0.100000)"
>
<path d="M210 287 c-7 -23 -21 -55 -32 -70 l-20 -28 24 6 c16 4 29 1 37 -8 9
-12 4 -21 -31 -52 -43 -37 -22 -32 35 7 l27 20 31 -26 c30 -26 89 -36 89 -16
0 6 -7 10 -15 10 -19 0 -95 38 -95 47 0 3 12 22 26 40 33 43 22 61 -27 44 -18
-6 -34 -10 -35 -8 -2 2 3 15 11 29 11 22 11 29 1 37 -10 8 -16 1 -26 -32z m60
-46 c0 -5 -8 -18 -17 -30 -16 -18 -20 -19 -37 -6 -22 16 -15 30 19 38 32 8 35
7 35 -2z"/>
<path d="M70 282 c0 -11 48 -37 55 -30 3 3 3 13 -1 22 -6 16 -54 23 -54 8z"/>
<path d="M66 185 c-11 -8 -28 -15 -38 -15 -10 0 -18 -5 -18 -11 0 -11 16 -9
53 6 14 6 17 2 17 -27 0 -19 -5 -49 -11 -67 -16 -46 -4 -50 36 -11 19 18 32
36 30 39 -3 2 -11 -1 -17 -7 -30 -30 -33 -4 -11 86 6 26 -12 29 -41 7z"/>
<path d="M258 105 c-2 -3 -23 -6 -45 -7 l-40 -1 10 -40 c10 -38 11 -39 46 -33
20 3 42 6 49 6 6 0 12 8 12 18 0 10 6 24 12 30 10 10 10 15 -2 22 -17 11 -34
13 -42 5z m12 -39 c0 -19 -6 -25 -31 -28 -20 -3 -33 0 -36 9 -10 25 6 43 37
43 25 0 30 -4 30 -24z"/>
</g>
</svg>
