<?xml version="1.0" encoding="UTF-8" standalone="no"?>
<!DOCTYPE svg PUBLIC "-//W3C//DTD SVG 20010904//EN"
 "http://www.w3.org/TR/2001/REC-SVG-20010904/DTD/svg10.dtd">
<svg version="1.0" xmlns="http://www.w3.org/2000/svg"
 width="43.000000pt" height="46.000000pt" viewBox="0 0 43.000000 46.000000"
 preserveAspectRatio="xMidYMid meet">
<metadata>
Created by POTRACE 1.0.0, written by Peter Selinger 2001-2017
</metadata>
<g transform="translate(0.000000,46.000000) scale(0.100000,-0.100000)"
>
<path d="M238 409 c-2 -19 -9 -24 -30 -24 -28 1 -28 0 -28 -62 0 -35 -1 -66
-2 -70 -2 -4 43 -6 100 -4 l102 3 0 -30 c0 -46 -10 -62 -39 -63 -15 0 -20 -3
-11 -6 8 -3 18 -11 22 -16 14 -22 38 15 38 57 0 23 5 47 12 54 14 14 17 14
-104 12 l-98 -2 0 50 0 50 55 4 c69 4 75 2 75 -28 0 -16 -8 -27 -22 -33 -20
-7 -20 -8 -3 -15 25 -9 33 2 37 53 l3 45 -54 -3 c-50 -2 -54 -1 -41 14 9 11
10 19 2 27 -7 7 -11 3 -14 -13z"/>
<path d="M92 370 c15 -21 25 -27 32 -19 8 7 4 16 -13 30 -35 28 -45 23 -19
-11z"/>
<path d="M247 324 c9 -15 19 -21 21 -15 4 13 -16 41 -29 41 -5 0 -2 -12 8 -26z"/>
<path d="M143 323 c-38 -105 -64 -158 -83 -168 l-22 -12 22 -6 c19 -5 21 -11
18 -48 -2 -29 1 -43 11 -47 11 -4 13 5 8 44 -4 39 1 70 28 152 18 56 31 102
29 102 -3 0 -7 -8 -11 -17z"/>
<path d="M56 286 c17 -21 32 -32 37 -27 13 13 1 28 -35 47 l-30 16 28 -36z"/>
<path d="M251 228 c4 -31 -3 -34 -61 -32 -33 1 -57 -2 -54 -7 3 -5 25 -9 50
-9 24 0 44 -4 44 -9 0 -5 -24 -34 -53 -65 -68 -72 -54 -73 18 -1 40 41 55 51
56 38 1 -10 2 -37 3 -60 2 -76 16 -57 16 23 l1 79 19 -37 c27 -51 83 -93 107
-80 15 9 12 13 -25 27 -39 16 -82 56 -82 76 0 5 16 9 36 9 24 0 34 4 31 13 -2
6 -13 11 -23 9 -55 -8 -59 -7 -58 16 0 12 -5 22 -13 22 -8 0 -13 -6 -12 -12z"/>
</g>
</svg>
