<?xml version="1.0" encoding="UTF-8" standalone="no"?>
<!DOCTYPE svg PUBLIC "-//W3C//DTD SVG 20010904//EN"
 "http://www.w3.org/TR/2001/REC-SVG-20010904/DTD/svg10.dtd">
<svg version="1.0" xmlns="http://www.w3.org/2000/svg"
 width="44.000000pt" height="39.000000pt" viewBox="0 0 44.000000 39.000000"
 preserveAspectRatio="xMidYMid meet">
<metadata>
Created by POTRACE 1.0.0, written by Peter Selinger 2001-2017
</metadata>
<g transform="translate(0.000000,39.000000) scale(0.100000,-0.100000)"
>
<path d="M108 342 c24 -54 32 -61 32 -30 0 13 -11 35 -26 48 l-25 24 19 -42z"/>
<path d="M220 238 c0 -150 18 -158 22 -10 l3 107 63 3 62 3 0 -105 c0 -59 4
-108 10 -111 6 -4 10 31 10 99 0 74 4 106 13 109 30 11 -9 19 -92 21 l-91 1 0
-117z"/>
<path d="M166 328 c-2 -7 -11 -42 -21 -78 -9 -36 -25 -81 -35 -100 l-19 -35
-1 77 c0 42 5 80 10 83 12 7 4 25 -11 25 -5 0 -9 -45 -9 -102 0 -101 0 -102
-32 -137 -32 -32 -22 -35 15 -3 15 13 17 13 17 0 0 -19 21 -28 65 -28 42 0 45
5 37 60 l-7 45 -5 -40 c-4 -36 -8 -40 -36 -43 -21 -2 -33 2 -37 12 -7 18 54
146 68 142 5 -1 14 -17 19 -34 10 -34 26 -43 26 -14 0 9 -11 29 -24 43 -22 24
-23 30 -13 72 6 26 14 47 19 47 5 0 6 5 3 10 -9 14 -25 13 -29 -2z"/>
<path d="M291 223 c-2 -96 -26 -150 -84 -193 -44 -32 -43 -39 1 -16 37 19 68
54 86 96 l15 35 1 -52 c0 -79 3 -83 72 -83 58 0 60 1 54 23 -3 12 -6 36 -7 52
-2 26 -3 25 -8 -9 -7 -46 -27 -62 -65 -52 -27 7 -27 8 -25 72 2 45 -2 68 -10
74 -14 8 -11 79 3 113 6 13 3 17 -11 17 -18 0 -20 -8 -22 -77z"/>
<path d="M45 193 c-4 -18 -14 -38 -21 -44 -18 -15 -18 -29 1 -29 15 0 40 72
32 93 -3 7 -8 -3 -12 -20z"/>
</g>
</svg>
