<?xml version="1.0" encoding="UTF-8" standalone="no"?>
<!DOCTYPE svg PUBLIC "-//W3C//DTD SVG 20010904//EN"
 "http://www.w3.org/TR/2001/REC-SVG-20010904/DTD/svg10.dtd">
<svg version="1.0" xmlns="http://www.w3.org/2000/svg"
 width="43.000000pt" height="39.000000pt" viewBox="0 0 43.000000 39.000000"
 preserveAspectRatio="xMidYMid meet">
<metadata>
Created by POTRACE 1.0.0, written by Peter Selinger 2001-2017
</metadata>
<g transform="translate(0.000000,39.000000) scale(0.100000,-0.100000)"
>
<path d="M120 334 l0 -47 -34 6 -34 5 -4 -111 c-2 -82 -8 -121 -21 -146 -22
-44 -22 -50 1 -20 31 39 42 87 42 175 0 83 0 84 25 84 20 0 25 -5 25 -25 0
-18 -5 -25 -20 -25 -11 0 -20 -4 -20 -9 0 -5 9 -7 20 -4 14 4 20 0 20 -10 0
-23 36 -39 71 -32 29 7 37 19 19 30 -5 3 -10 1 -10 -4 0 -16 -57 -13 -63 3 -6
15 12 26 44 26 10 0 18 5 17 12 -2 7 7 17 20 23 12 5 22 13 22 17 0 9 -11 11
-62 8 l-38 -2 3 46 c2 32 -1 46 -10 46 -9 0 -13 -15 -13 -46z m80 -64 c0 -5
-13 -16 -29 -24 -28 -15 -29 -14 -34 9 -4 23 -1 25 29 25 19 0 34 -4 34 -10z"/>
<path d="M250 289 c0 -36 -3 -87 -6 -113 -5 -31 -3 -46 4 -46 7 0 12 36 14
103 l3 102 43 3 42 3 0 -105 c0 -64 4 -106 10 -106 6 0 11 41 12 100 0 55 1
105 2 112 1 8 -20 12 -61 12 l-63 1 0 -66z"/>
<path d="M191 337 c-9 -12 -7 -14 9 -13 11 0 21 5 21 11 1 16 -17 17 -30 2z"/>
<path d="M160 335 c0 -3 2 -5 5 -5 3 0 5 2 5 5 0 3 -2 5 -5 5 -3 0 -5 -2 -5
-5z"/>
<path d="M297 216 c-7 -102 -22 -141 -71 -184 -20 -17 -32 -32 -27 -32 18 0
84 64 97 95 l13 30 1 -45 c0 -54 13 -70 56 -70 40 0 42 4 35 60 l-5 45 -6 -40
c-4 -35 -9 -40 -33 -43 l-28 -3 3 63 c2 45 -1 66 -11 74 -12 9 -12 23 -4 73 7
46 7 61 -2 61 -8 0 -14 -29 -18 -84z"/>
<path d="M100 111 c0 -39 -6 -56 -27 -82 l-28 -33 26 17 c29 19 49 56 49 92 0
13 6 25 12 27 8 3 4 9 -10 17 -21 11 -22 10 -22 -38z"/>
<path d="M155 140 c-3 -5 -1 -10 6 -10 8 0 10 -16 6 -55 -3 -30 -4 -55 -3 -55
2 0 21 17 42 37 28 27 32 32 12 20 -15 -9 -30 -17 -33 -17 -9 0 -5 59 5 65 6
4 8 11 5 16 -8 12 -32 12 -40 -1z"/>
</g>
</svg>
