<?xml version="1.0" encoding="UTF-8" standalone="no"?>
<!DOCTYPE svg PUBLIC "-//W3C//DTD SVG 20010904//EN"
 "http://www.w3.org/TR/2001/REC-SVG-20010904/DTD/svg10.dtd">
<svg version="1.0" xmlns="http://www.w3.org/2000/svg"
 width="42.000000pt" height="40.000000pt" viewBox="0 0 42.000000 40.000000"
 preserveAspectRatio="xMidYMid meet">
<metadata>
Created by POTRACE 1.0.0, written by Peter Selinger 2001-2017
</metadata>
<g transform="translate(0.000000,40.000000) scale(0.100000,-0.100000)"
>
<path d="M265 351 l16 -31 -35 0 c-19 0 -37 6 -39 13 -4 8 -6 8 -6 -2 -1 -8
-8 -23 -18 -33 -9 -10 -13 -21 -9 -26 5 -4 15 3 23 16 14 19 24 22 89 22 66 0
73 -2 67 -17 -5 -15 -3 -16 8 -5 7 6 22 12 32 12 16 0 17 3 7 15 -9 10 -24 13
-54 9 -37 -6 -44 -4 -48 14 -3 11 -15 25 -27 32 -22 11 -22 11 -6 -19z"/>
<path d="M20 172 c0 -106 3 -161 10 -157 6 3 10 15 10 26 0 26 56 27 63 1 3
-9 5 46 6 123 1 95 5 145 13 153 14 14 14 14 -52 16 l-50 1 0 -163z m80 113
c0 -32 -2 -35 -30 -35 -28 0 -30 3 -30 35 0 32 2 35 30 35 28 0 30 -3 30 -35z
m-5 -85 c0 -31 -3 -35 -27 -38 -27 -3 -28 -1 -28 38 0 39 1 41 28 38 24 -3 27
-7 27 -38z m3 -87 c-3 -33 -7 -38 -30 -41 -27 -3 -28 -1 -28 37 0 39 1 41 31
41 29 0 30 -2 27 -37z"/>
<path d="M280 263 c-24 -7 -52 -10 -62 -7 -16 5 -18 -2 -18 -70 l0 -76 -36 0
c-20 0 -33 -4 -29 -10 3 -5 25 -7 50 -3 58 7 57 -4 -1 -56 -59 -52 -49 -53 23
-1 31 22 51 40 45 40 -7 0 -12 5 -12 11 0 6 25 10 68 9 95 -2 104 -1 97 10 -3
5 -25 7 -50 3 l-45 -6 0 37 0 36 47 0 c45 0 46 1 30 17 -13 13 -19 15 -29 5
-7 -7 -39 -12 -75 -12 -60 0 -63 1 -63 24 0 26 4 27 109 38 20 3 22 5 10 14
-10 8 -26 7 -59 -3z m20 -118 c0 -34 -1 -35 -40 -35 -39 0 -40 1 -40 35 0 34
1 35 40 35 39 0 40 -1 40 -35z"/>
<path d="M331 41 c24 -21 47 -37 52 -34 12 7 -1 22 -44 48 -55 36 -58 31 -8
-14z"/>
</g>
</svg>
