<?xml version="1.0" encoding="UTF-8" standalone="no"?>
<!DOCTYPE svg PUBLIC "-//W3C//DTD SVG 20010904//EN"
 "http://www.w3.org/TR/2001/REC-SVG-20010904/DTD/svg10.dtd">
<svg version="1.0" xmlns="http://www.w3.org/2000/svg"
 width="37.000000pt" height="39.000000pt" viewBox="0 0 37.000000 39.000000"
 preserveAspectRatio="xMidYMid meet">
<metadata>
Created by POTRACE 1.0.0, written by Peter Selinger 2001-2017
</metadata>
<g transform="translate(0.000000,39.000000) scale(0.100000,-0.100000)"
>
<path d="M200 370 c-12 -22 -40 -26 -57 -9 -6 6 -39 12 -72 13 l-61 3 0 -114
c0 -104 2 -114 18 -111 11 2 18 14 20 36 2 18 8 30 13 26 17 -10 59 6 67 25 5
13 13 16 27 11 18 -6 14 -11 -28 -40 -26 -19 -47 -37 -47 -42 0 -17 33 -7 75
22 24 17 49 30 55 30 7 0 10 7 6 15 -3 9 0 15 9 15 10 0 15 -10 15 -30 0 -28
-2 -30 -41 -30 -40 0 -41 0 -34 -31 l7 -32 -56 5 -56 5 0 -39 c0 -21 5 -38 10
-38 6 0 10 14 10 30 0 29 2 30 44 30 l43 0 1 -45 1 -45 -79 0 c-43 0 -81 -4
-85 -9 -10 -17 8 -18 153 -7 114 9 146 9 154 -1 6 -7 17 -13 25 -13 24 0 -5
30 -44 47 -42 17 -52 17 -27 -2 18 -13 15 -14 -28 -15 l-48 0 0 45 0 45 45 0
c33 0 45 -4 45 -15 0 -9 -10 -15 -27 -16 -21 -1 -23 -2 -8 -6 11 -3 26 -10 33
-15 9 -8 12 -4 12 15 0 14 3 32 6 41 5 12 -3 14 -50 9 -47 -5 -56 -3 -56 10 0
12 7 15 33 10 38 -6 54 8 59 51 l3 30 36 -32 c44 -38 49 -39 49 -9 0 16 -10
28 -32 40 l-33 16 33 0 c26 1 33 5 30 19 -3 13 -12 16 -47 14 -36 -2 -42 0
-37 14 3 8 6 18 6 20 0 2 18 4 40 4 34 0 40 3 40 20 0 19 -4 20 -67 14 -45 -4
-63 -2 -54 4 7 5 10 15 7 21 -11 18 -44 13 -56 -9z m-132 -49 c-10 -16 -9 -23
5 -39 22 -24 21 -32 -3 -32 -17 0 -20 7 -20 45 0 33 4 45 15 45 13 0 13 -3 3
-19z m88 -1 c12 0 12 -4 2 -20 -15 -23 -41 -26 -57 -7 -13 17 6 40 27 32 8 -3
20 -5 28 -5z m82 -23 c3 -12 -4 -17 -22 -17 -24 0 -25 2 -14 20 15 23 31 21
36 -3z m52 -52 c0 -3 -2 -5 -5 -5 -3 0 -5 2 -5 5 0 3 2 5 5 5 3 0 5 -2 5 -5z"/>
<path d="M123 83 c4 -3 10 -3 14 0 3 4 0 7 -7 7 -7 0 -10 -3 -7 -7z"/>
<path d="M210 85 c0 -3 2 -5 5 -5 3 0 5 2 5 5 0 3 -2 5 -5 5 -3 0 -5 -2 -5 -5z"/>
</g>
</svg>
