<?xml version="1.0" encoding="UTF-8" standalone="no"?>
<!DOCTYPE svg PUBLIC "-//W3C//DTD SVG 20010904//EN"
 "http://www.w3.org/TR/2001/REC-SVG-20010904/DTD/svg10.dtd">
<svg version="1.0" xmlns="http://www.w3.org/2000/svg"
 width="39.000000pt" height="47.000000pt" viewBox="0 0 39.000000 47.000000"
 preserveAspectRatio="xMidYMid meet">
<metadata>
Created by POTRACE 1.0.0, written by Peter Selinger 2001-2017
</metadata>
<g transform="translate(0.000000,47.000000) scale(0.100000,-0.100000)"
>
<path d="M91 396 c12 -20 25 -36 30 -36 15 0 10 26 -8 42 -36 30 -43 28 -22
-6z"/>
<path d="M334 399 c-4 -8 -35 -10 -90 -7 -46 2 -84 1 -84 -4 0 -4 40 -8 90 -8
l90 0 0 -155 c0 -117 -3 -155 -12 -156 -7 -1 -26 -1 -43 0 l-30 1 35 -18 c23
-12 41 -16 53 -10 15 8 17 27 17 173 0 115 3 165 11 165 8 0 8 5 -1 15 -15 18
-26 19 -36 4z"/>
<path d="M30 205 c0 -103 4 -165 10 -165 6 0 10 56 10 149 0 99 4 152 11 157
11 6 -6 23 -23 24 -5 0 -8 -74 -8 -165z"/>
<path d="M180 310 c-52 -3 -78 -7 -57 -8 27 -1 37 -6 37 -18 0 -12 -7 -15 -30
-12 -30 4 -30 4 -29 -41 0 -25 3 -40 6 -33 2 6 22 12 43 12 33 0 37 -3 33 -19
-4 -15 -16 -21 -47 -24 l-41 -4 43 -1 c34 -2 42 -5 42 -22 0 -16 -8 -20 -57
-23 -32 -2 0 -4 71 -5 115 -2 127 0 116 13 -9 11 -16 13 -24 5 -5 -5 -27 -10
-48 -10 -31 0 -38 4 -38 20 0 17 7 20 46 20 25 0 43 4 40 9 -3 5 -24 7 -45 4
-37 -5 -40 -4 -38 17 1 20 6 22 44 17 42 -4 43 -4 43 24 0 42 -2 44 -32 41
-20 -2 -28 1 -28 12 0 12 10 16 41 16 24 0 38 4 34 10 -3 6 -12 9 -18 8 -7 -1
-55 -5 -107 -8z m40 -25 c0 -9 -9 -15 -25 -15 -16 0 -25 6 -25 15 0 9 9 15 25
15 16 0 25 -6 25 -15z m-60 -45 c0 -15 -7 -20 -25 -20 -18 0 -25 5 -25 20 0
15 7 20 25 20 18 0 25 -5 25 -20z m57 0 c1 -15 -4 -20 -23 -20 -17 0 -24 5
-24 20 0 14 7 20 23 20 16 0 23 -6 24 -20z m53 0 c0 -13 -7 -20 -20 -20 -13 0
-20 7 -20 20 0 13 7 20 20 20 13 0 20 -7 20 -20z"/>
</g>
</svg>
