<?xml version="1.0" encoding="UTF-8" standalone="no"?>
<!DOCTYPE svg PUBLIC "-//W3C//DTD SVG 20010904//EN"
 "http://www.w3.org/TR/2001/REC-SVG-20010904/DTD/svg10.dtd">
<svg version="1.0" xmlns="http://www.w3.org/2000/svg"
 width="47.000000pt" height="49.000000pt" viewBox="0 0 47.000000 49.000000"
 preserveAspectRatio="xMidYMid meet">
<metadata>
Created by POTRACE 1.0.0, written by Peter Selinger 2001-2017
</metadata>
<g transform="translate(0.000000,49.000000) scale(0.100000,-0.100000)"
>
<path d="M168 398 c-3 -20 -10 -24 -68 -29 l-65 -6 68 -1 c52 -2 67 -5 67 -17
0 -8 5 -15 10 -15 6 0 10 7 10 15 0 11 11 15 39 15 25 0 41 -5 45 -15 4 -11
-1 -15 -19 -15 -14 0 -25 -5 -25 -10 0 -7 13 -8 35 -4 30 5 35 3 35 -12 0 -31
-16 -47 -39 -39 -20 6 -21 4 -19 -77 l2 -83 5 70 6 70 58 3 57 3 0 -73 c0 -93
18 -79 21 17 l2 70 -46 -3 c-42 -3 -46 -2 -40 15 12 35 26 43 72 43 43 1 45 2
26 16 -12 9 -21 11 -23 4 -2 -5 -24 -10 -48 -10 -32 0 -44 4 -44 15 0 12 14
15 65 15 38 0 65 4 65 10 0 16 -30 24 -43 11 -6 -6 -29 -11 -50 -11 -37 0 -39
2 -35 25 4 17 1 25 -8 25 -8 0 -14 -11 -14 -25 0 -22 -4 -25 -40 -25 -36 0
-40 3 -40 25 0 31 -17 33 -22 3z"/>
<path d="M130 310 c0 -17 -7 -20 -46 -20 -25 0 -43 -4 -40 -9 3 -5 24 -7 46
-4 l40 6 0 -52 c0 -44 -3 -51 -20 -51 -27 0 -29 50 -2 51 14 0 14 2 -3 9 -33
14 -35 12 -35 -41 0 -44 2 -50 15 -39 8 6 19 10 26 8 6 -2 -8 -27 -32 -58 -40
-53 -20 -45 28 10 l22 25 1 -57 c0 -32 5 -58 10 -58 9 0 16 90 10 129 -1 10 6
12 29 8 29 -6 31 -5 31 22 0 16 3 37 6 46 6 14 2 15 -30 10 -32 -6 -36 -5 -36
14 0 18 6 21 46 21 28 0 43 4 39 10 -4 6 -23 7 -47 3 -39 -6 -41 -5 -36 15 4
15 2 22 -8 22 -8 0 -14 -9 -14 -20z m60 -105 c0 -18 -5 -25 -20 -25 -15 0 -20
7 -20 25 0 18 5 25 20 25 15 0 20 -7 20 -25z"/>
<path d="M300 183 c0 -55 -28 -104 -75 -130 -50 -28 -36 -30 21 -3 31 15 46
31 57 58 21 51 25 104 10 109 -9 3 -13 -7 -13 -34z"/>
<path d="M182 113 c15 -15 31 -23 35 -19 9 8 -32 46 -50 46 -7 0 1 -12 15 -27z"/>
<path d="M361 70 c47 -45 49 -46 49 -25 0 13 -65 65 -83 65 -4 0 11 -18 34
-40z"/>
</g>
</svg>
