<?xml version="1.0" encoding="UTF-8" standalone="no"?>
<!DOCTYPE svg PUBLIC "-//W3C//DTD SVG 20010904//EN"
 "http://www.w3.org/TR/2001/REC-SVG-20010904/DTD/svg10.dtd">
<svg version="1.0" xmlns="http://www.w3.org/2000/svg"
 width="41.000000pt" height="39.000000pt" viewBox="0 0 41.000000 39.000000"
 preserveAspectRatio="xMidYMid meet">
<metadata>
Created by POTRACE 1.0.0, written by Peter Selinger 2001-2017
</metadata>
<g transform="translate(0.000000,39.000000) scale(0.100000,-0.100000)"
>
<path d="M189 308 c-13 -35 -26 -67 -28 -73 -2 -5 5 1 16 14 l20 25 7 -22 c4
-12 12 -20 17 -16 6 4 4 13 -7 25 -20 22 -12 49 16 49 35 0 17 -66 -36 -130
-28 -34 -28 -34 -4 -19 25 16 93 136 87 154 -2 6 -16 9 -30 7 -27 -3 -37 11
-17 23 15 9 12 25 -4 25 -7 0 -24 -28 -37 -62z"/>
<path d="M338 343 c-2 -22 -8 -28 -25 -27 -13 0 -23 -3 -23 -8 0 -4 11 -8 25
-8 21 0 25 -5 25 -30 0 -18 -6 -33 -15 -37 -23 -8 -31 5 -16 28 13 22 9 35 -8
24 -6 -3 -11 -14 -11 -24 0 -9 -5 -22 -12 -29 -9 -9 -4 -12 24 -12 35 0 37 -2
41 -37 l4 -38 1 38 c2 34 4 37 32 37 17 0 30 4 30 9 0 16 -20 23 -34 12 -17
-14 -26 -4 -26 31 0 23 4 28 25 28 14 0 25 4 25 9 0 15 -18 23 -25 11 -11 -18
-27 1 -21 26 4 13 2 24 -3 24 -5 0 -11 -12 -13 -27z"/>
<path d="M71 325 c21 -36 39 -46 39 -22 0 14 -40 57 -53 57 -3 0 3 -16 14 -35z"/>
<path d="M40 230 c-37 -8 -32 -14 9 -10 l23 2 -4 -106 c-2 -58 -1 -106 2 -106
3 0 25 24 50 52 l45 53 -37 -29 -38 -28 0 75 c0 42 5 79 10 82 13 8 3 25 -13
24 -7 -1 -28 -5 -47 -9z"/>
<path d="M270 165 c0 -23 -3 -25 -50 -25 -28 0 -50 -5 -50 -10 0 -7 13 -8 35
-4 50 9 45 -9 -18 -73 -30 -29 -50 -53 -45 -53 5 0 36 27 69 59 l59 59 0 -59
c0 -79 18 -76 22 4 l3 62 59 5 c50 4 57 7 44 18 -11 9 -18 10 -23 2 -3 -5 -24
-10 -47 -10 -38 0 -40 2 -36 25 4 17 1 25 -8 25 -8 0 -14 -11 -14 -25z"/>
<path d="M300 116 c0 -4 7 -20 15 -36 17 -34 43 -50 77 -50 20 1 18 4 -14 20
-20 11 -46 32 -57 46 -12 15 -21 24 -21 20z"/>
</g>
</svg>
