<?xml version="1.0" encoding="UTF-8" standalone="no"?>
<!DOCTYPE svg PUBLIC "-//W3C//DTD SVG 20010904//EN"
 "http://www.w3.org/TR/2001/REC-SVG-20010904/DTD/svg10.dtd">
<svg version="1.0" xmlns="http://www.w3.org/2000/svg"
 width="39.000000pt" height="40.000000pt" viewBox="0 0 39.000000 40.000000"
 preserveAspectRatio="xMidYMid meet">
<metadata>
Created by POTRACE 1.0.0, written by Peter Selinger 2001-2017
</metadata>
<g transform="translate(0.000000,40.000000) scale(0.100000,-0.100000)"
>
<path d="M110 365 c0 -22 -5 -24 -52 -28 l-53 -3 54 -2 c43 -2 52 -5 47 -17
-3 -9 0 -15 9 -15 9 0 12 6 9 15 -5 12 4 15 45 15 28 0 51 4 51 10 0 5 -21 7
-51 3 -49 -6 -51 -5 -40 14 8 17 7 22 -4 27 -11 4 -15 -2 -15 -19z"/>
<path d="M250 315 c0 -22 -9 -58 -20 -80 -24 -47 -24 -45 -5 -45 8 0 15 -9 15
-20 0 -11 7 -38 16 -60 18 -43 12 -60 -29 -81 -18 -10 -19 -7 -15 38 3 44 1
48 -18 46 -20 -2 -21 1 -13 43 11 55 6 66 -27 58 -17 -4 -24 -2 -24 9 0 8 -7
18 -16 21 -23 9 -24 8 -24 -15 0 -15 -5 -19 -19 -14 -17 5 -20 -1 -23 -57 -2
-35 0 -69 5 -75 7 -10 1 -13 -23 -13 -21 0 -30 -4 -28 -12 3 -9 36 -15 94 -19
49 -3 77 -6 62 -7 -31 -2 -37 -16 -12 -26 32 -12 62 -5 100 22 l39 29 37 -24
c27 -18 41 -22 54 -15 14 8 13 11 -12 20 -16 5 -37 16 -47 24 -18 14 -18 17
11 76 16 36 24 63 18 63 -6 1 -38 0 -71 -1 l-60 -2 22 24 c14 15 23 39 25 68
3 41 6 45 31 48 27 3 27 2 27 -52 l0 -56 35 0 c19 0 35 4 35 9 0 6 -12 9 -27
8 -25 -2 -28 2 -31 31 -2 19 -1 41 3 50 10 26 8 27 -40 27 l-45 1 0 -41z m66
-150 c-10 -38 -25 -75 -31 -75 -8 0 -35 66 -35 85 0 11 10 15 36 15 33 0 36
-2 30 -25z m-166 -5 c0 -11 -4 -20 -9 -20 -5 0 -11 9 -14 20 -3 13 0 20 9 20
8 0 14 -9 14 -20z m-46 -16 c10 -25 7 -34 -9 -34 -9 0 -15 9 -15 25 0 28 15
34 24 9z m24 -71 c-10 -2 -28 -2 -40 0 -13 2 -5 4 17 4 22 1 32 -1 23 -4z m52
2 c0 -3 -2 -5 -5 -5 -3 0 -5 2 -5 5 0 3 2 5 5 5 3 0 5 -2 5 -5z"/>
<path d="M25 268 c-19 -43 -14 -63 7 -29 11 17 23 21 71 21 36 0 56 -4 52 -10
-3 -5 1 -10 10 -10 9 0 13 5 10 10 -3 6 -1 10 4 10 6 0 11 -5 11 -10 0 -6 8
-5 20 2 31 19 15 23 -81 19 -57 -2 -89 1 -89 7 0 6 10 12 23 14 22 3 22 3 1 9
-18 5 -24 -1 -39 -33z"/>
<path d="M168 303 c7 -3 16 -2 19 1 4 3 -2 6 -13 5 -11 0 -14 -3 -6 -6z"/>
<path d="M50 240 c0 -6 7 -10 15 -10 19 0 19 6 0 14 -8 3 -15 1 -15 -4z"/>
</g>
</svg>
