<?xml version="1.0" encoding="UTF-8" standalone="no"?>
<!DOCTYPE svg PUBLIC "-//W3C//DTD SVG 20010904//EN"
 "http://www.w3.org/TR/2001/REC-SVG-20010904/DTD/svg10.dtd">
<svg version="1.0" xmlns="http://www.w3.org/2000/svg"
 width="43.000000pt" height="39.000000pt" viewBox="0 0 43.000000 39.000000"
 preserveAspectRatio="xMidYMid meet">
<metadata>
Created by POTRACE 1.0.0, written by Peter Selinger 2001-2017
</metadata>
<g transform="translate(0.000000,39.000000) scale(0.100000,-0.100000)"
>
<path d="M51 354 c9 -10 19 -27 22 -36 7 -21 27 -24 27 -5 0 14 -22 37 -50 52
-12 7 -12 5 1 -11z"/>
<path d="M210 295 c0 -75 0 -75 -27 -75 -14 0 -23 -3 -19 -7 4 -4 38 -6 75 -4
l68 3 6 -39 c3 -21 8 -45 11 -54 5 -11 -9 -34 -41 -69 -49 -55 -31 -56 21 -1
17 17 32 31 36 31 3 0 14 -13 23 -30 13 -21 26 -30 43 -30 l26 0 -31 26 c-48
40 -51 52 -30 129 10 39 18 84 18 102 1 17 7 33 14 36 8 3 9 8 2 15 -6 6 -34
7 -75 2 -36 -4 -57 -8 -47 -9 14 -1 17 -10 17 -48 l0 -48 -41 -3 c-40 -3 -40
-2 -37 30 3 29 7 33 36 36 18 2 30 7 27 12 -3 5 -19 7 -35 3 -33 -6 -40 10
-20 48 8 15 7 19 -5 19 -12 0 -15 -14 -15 -75z m156 -40 c-4 -36 -11 -78 -17
-93 l-11 -27 -9 23 c-5 13 -12 55 -15 93 l-7 69 33 0 33 0 -7 -65z"/>
<path d="M65 241 c-6 -5 -21 -11 -35 -14 -21 -4 -20 -4 8 -6 30 -1 32 -3 31
-38 0 -21 -4 -62 -8 -91 -4 -30 -4 -55 1 -58 5 -4 25 13 45 35 19 23 38 40 41
37 2 -3 -1 -12 -8 -21 -7 -9 -11 -18 -8 -20 4 -4 68 80 68 90 0 15 -22 1 -31
-19 -7 -14 -17 -22 -23 -20 -7 3 -21 -4 -31 -16 -10 -11 -22 -20 -28 -20 -8 0
-5 86 5 144 3 21 -13 31 -27 17z"/>
<path d="M216 193 c-3 -3 -6 -39 -6 -80 0 -73 0 -73 -27 -74 -17 0 -22 -3 -13
-6 8 -3 18 -10 21 -16 4 -5 14 -7 22 -4 12 4 16 26 19 92 3 82 -1 103 -16 88z"/>
<path d="M267 122 c19 -34 37 -43 31 -16 -2 9 -13 23 -26 32 l-23 15 18 -31z"/>
</g>
</svg>
