<?xml version="1.0" encoding="UTF-8" standalone="no"?>
<!DOCTYPE svg PUBLIC "-//W3C//DTD SVG 20010904//EN"
 "http://www.w3.org/TR/2001/REC-SVG-20010904/DTD/svg10.dtd">
<svg version="1.0" xmlns="http://www.w3.org/2000/svg"
 width="46.000000pt" height="40.000000pt" viewBox="0 0 46.000000 40.000000"
 preserveAspectRatio="xMidYMid meet">
<metadata>
Created by POTRACE 1.0.0, written by Peter Selinger 2001-2017
</metadata>
<g transform="translate(0.000000,40.000000) scale(0.100000,-0.100000)"
>
<path d="M93 333 c2 -46 1 -48 -25 -46 l-28 2 0 -77 c1 -66 3 -75 14 -59 7 9
21 17 30 17 14 0 17 -8 14 -47 -3 -47 -3 -47 -48 -58 -27 -6 -40 -14 -33 -18
7 -4 42 3 77 15 65 23 65 23 81 3 16 -19 16 -19 12 7 l-4 28 140 0 c124 0 138
2 127 15 -9 11 -16 13 -24 5 -5 -5 -23 -10 -38 -10 -25 0 -28 3 -28 35 0 34 1
35 40 35 39 0 52 12 29 26 -6 3 -16 1 -22 -5 -6 -6 -39 -11 -74 -11 -60 0 -63
1 -63 25 0 26 3 27 84 40 23 4 35 10 30 15 -6 6 -29 4 -57 -5 -26 -8 -54 -12
-62 -9 -12 5 -15 -7 -15 -69 l0 -75 -40 -4 c-27 -2 -46 2 -56 12 -15 14 -15
13 -5 -6 9 -19 7 -22 -14 -26 -24 -5 -25 -3 -25 38 0 37 3 44 19 44 11 0 21
-6 24 -12 9 -25 15 -2 18 67 2 51 0 69 -9 68 -21 -5 -27 -5 -39 -4 -15 1 -17
57 -3 66 13 8 3 25 -15 25 -9 0 -13 -13 -12 -47z m7 -102 c0 -30 -4 -40 -20
-44 -18 -5 -20 0 -20 39 0 37 3 44 20 44 17 0 20 -7 20 -39z m50 -5 c0 -36 -3
-44 -17 -42 -13 2 -19 14 -21 44 -3 37 -1 42 17 42 18 0 21 -6 21 -44z m190
-81 c0 -33 -2 -35 -35 -35 -33 0 -35 2 -35 35 0 33 2 35 35 35 33 0 35 -2 35
-35z"/>
<path d="M314 352 l17 -32 -36 0 c-21 0 -35 5 -35 13 0 6 -6 3 -12 -8 -6 -11
-19 -25 -27 -32 -14 -11 -14 -12 2 -13 10 0 20 7 23 15 5 12 24 15 86 15 74 0
79 -1 67 -17 -12 -14 -12 -15 1 -10 8 4 23 10 33 13 21 8 22 18 3 33 -10 8
-16 9 -21 1 -3 -5 -21 -10 -39 -10 -25 0 -33 4 -32 16 0 9 -10 23 -23 32 l-24
16 17 -32z"/>
<path d="M228 45 c-26 -25 -43 -45 -39 -45 14 0 111 77 104 84 -11 10 -16 7
-65 -39z"/>
<path d="M346 72 c5 -4 26 -23 47 -41 32 -31 37 -32 37 -15 0 13 -14 28 -39
42 -37 21 -65 30 -45 14z"/>
</g>
</svg>
